SplineFontDB: 3.0
FontName: KMCType-Regular-Italic
FullName: KMC Type Regular Italic
FamilyName: KMC Type
Weight: Regular
Copyright: Copyright (c) 2016, Maztani
UComments: "2016-7-18: Created with FontForge (http://fontforge.org)"
Version: 000.100
ItalicAngle: 0
UnderlinePosition: -100
UnderlineWidth: 50
Ascent: 800
Descent: 300
InvalidEm: 0
LayerCount: 2
Layer: 0 0 "+gMyXYgAA" 1
Layer: 1 0 "+Uk2XYgAA" 0
XUID: [1021 213 -308369352 8390]
StyleMap: 0x0001
FSType: 0
OS2Version: 0
OS2_WeightWidthSlopeOnly: 0
OS2_UseTypoMetrics: 1
CreationTime: 1468775508
ModificationTime: 1475894153
PfmFamily: 33
TTFWeight: 400
TTFWidth: 5
LineGap: 90
VLineGap: 0
OS2TypoAscent: 0
OS2TypoAOffset: 1
OS2TypoDescent: 0
OS2TypoDOffset: 1
OS2TypoLinegap: 90
OS2WinAscent: 0
OS2WinAOffset: 1
OS2WinDescent: 0
OS2WinDOffset: 1
HheadAscent: 0
HheadAOffset: 1
HheadDescent: 0
HheadDOffset: 1
OS2Vendor: 'PfEd'
Lookup: 4 0 0 "dlig" { "dlig-1"  } ['dlig' ('DFLT' <'dflt' > 'latn' <'dflt' > ) ]
Lookup: 258 0 0 "Kerning" { "Kerning-1" [150,15,2] } ['kern' ('DFLT' <'dflt' > 'latn' <'dflt' > ) ]
MarkAttachClasses: 1
DEI: 91125
LangName: 1033
Encoding: UnicodeFull
Compacted: 1
UnicodeInterp: none
NameList: AGL For New Fonts
DisplaySize: -48
AntiAlias: 1
FitToEm: 0
WinInfo: 0 19 14
BeginPrivate: 0
EndPrivate
TeXData: 1 0 0 238312 119156 79437 503316 1048576 79437 783286 444596 497025 792723 393216 433062 380633 303038 157286 324010 404750 52429 2506097 1059062 262144
BeginChars: 1114112 123

StartChar: A
Encoding: 65 65 0
Width: 684
VWidth: -75
Flags: HMW
HStem: 12 24G<70 190 615 744> 193 89<296 513> 558 69 731 23G<397 421>
LayerCount: 2
Fore
SplineSet
495 282 m 1
 435 541 l 1
 278 282 l 1
 495 282 l 1
476 754 m 1
 679 12 l 1
 559 12 l 1
 516 193 l 1
 224 193 l 1
 116 12 l 1
 5 12 l 1
 473 754 l 1
 476 754 l 1
EndSplineSet
EndChar

StartChar: B
Encoding: 66 66 1
Width: 626
VWidth: -75
Flags: HW
HStem: 12 89<197 439.742> 344 89<255 466.723> 648 89<293 499.261>
VStem: 510.836 102.124<171.436 302.322> 530.914 100.486<491.579 616.783>
LayerCount: 2
Fore
SplineSet
255 433 m 1
 376 433 l 2
 456 434 517 475 529 541 c 0
 530.282226562 548.052734375 530.9140625 554.809570312 530.9140625 561.252929688 c 0
 530.9140625 615.103515625 486.809570312 647.106445312 410 648 c 2
 293 648 l 1
 255 433 l 1
197 101 m 1
 341 101 l 2
 447 101 498 160 509 223 c 0
 510.225585938 229.741210938 510.8359375 236.356445312 510.8359375 242.803710938 c 0
 510.8359375 299.477539062 463.684570312 343.102539062 373 344 c 2
 373 344 347 344 341 344 c 2
 240 344 l 1
 197 101 l 1
416 737 m 2
 572.826171875 737 631.400390625 663.310546875 631.400390625 577.803710938 c 0
 631.400390625 565.713867188 630.229492188 553.387695312 628 541 c 0
 618 484 569 409 479 394 c 1
 479 392 l 1
 569.014648438 379.522460938 612.959960938 309.0625 612.959960938 245.745117188 c 0
 612.959960938 238.017578125 612.305664062 230.396484375 611 223 c 0
 594 124 523 12 315 12 c 2
 181 12 l 1
 80 12 l 1
 208 737 l 1
 247 737 l 1
 416 737 l 2
EndSplineSet
EndChar

StartChar: C
Encoding: 67 67 2
Width: 747
VWidth: -75
Flags: HW
HStem: -3 94<340.366 560.181> 663 95<437.895 647.315>
VStem: 109.91 110.844<208.89 439.524>
LayerCount: 2
Fore
SplineSet
566 758 m 0
 654 758 755 716 807 656 c 1
 720 582 l 1
 679 634 613 663 547 663 c 0
 398 663 255 539 226 375 c 0
 222.456054688 355.154296875 220.75390625 336.034179688 220.75390625 317.745117188 c 0
 220.75390625 181.212890625 315.6015625 91 447 91 c 0
 523 91 608 126 670 186 c 1
 727 108 l 1
 643 35 551 -3 432 -3 c 0
 242.084960938 -3 109.91015625 110.137695312 109.91015625 298.505859375 c 0
 109.91015625 323.387695312 112.283203125 349.569335938 117 377 c 0
 155 598 349 758 566 758 c 0
EndSplineSet
EndChar

StartChar: D
Encoding: 68 68 3
Width: 766
VWidth: -75
Flags: HW
HStem: 12 89<197 450.383> 648 89<290 546.821>
VStem: 677.017 109.076<313.768 531.915>
LayerCount: 2
Fore
SplineSet
197 101 m 1
 315 101 l 2
 505 101 643 213 672 378 c 0
 675.361328125 397.010742188 677.016601562 415.2421875 677.016601562 432.619140625 c 0
 677.016601562 565.150390625 580.743164062 648 411 648 c 2
 293 648 l 1
 261 466 229 283 197 101 c 1
80 12 m 1
 96 101 l 1
 192 648 l 1
 208 737 l 1
 309 737 l 2
 344 737 380 737 415 737 c 0
 677.764648438 737 786.092773438 619.659179688 786.092773438 454.796875 c 0
 786.092773438 430.1796875 783.676757812 404.50390625 779 378 c 0
 744 178 586 12 284 12 c 2
 181 12 l 1
 80 12 l 1
EndSplineSet
EndChar

StartChar: E
Encoding: 69 69 4
Width: 572
VWidth: -75
Flags: HW
HStem: 12 89<197 508> 344 89<255 542> 648 89<293 606>
LayerCount: 2
Fore
SplineSet
622 737 m 1
 606 648 l 1
 293 648 l 1
 255 433 l 1
 557 433 l 1
 542 344 l 1
 240 344 l 1
 197 101 l 1
 524 101 l 1
 508 12 l 1
 181 12 l 1
 80 12 l 1
 96 101 l 1
 139 344 l 1
 154 433 l 1
 192 648 l 1
 208 737 l 1
 309 737 l 1
 622 737 l 1
EndSplineSet
EndChar

StartChar: F
Encoding: 70 70 5
Width: 589
VWidth: -75
Flags: HW
HStem: 12 21G<80 185.554> 344 89<256 567> 648 89<294 638>
LayerCount: 2
Fore
SplineSet
582 433 m 1
 567 344 l 1
 241 344 l 1
 182 12 l 1
 80 12 l 1
 139 344 l 1
 154 433 l 1
 192 648 l 1
 208 737 l 1
 310 737 l 1
 654 737 l 1
 638 648 l 1
 294 648 l 1
 256 433 l 1
 582 433 l 1
EndSplineSet
EndChar

StartChar: G
Encoding: 71 71 6
Width: 846
VWidth: -75
Flags: HW
HStem: -3 96<344.673 570.547> 325 90<507 742> 662 96<438.342 668.793>
VStem: 110.051 110.979<216.796 439.73>
LayerCount: 2
Fore
SplineSet
565 758 m 0
 665 758 759 724 817 660 c 1
 733 588 l 1
 697 631 644 662 548 662 c 0
 398 662 253 532 226 378 c 0
 222.64453125 359.0234375 221.029296875 340.623046875 221.029296875 322.918945312 c 0
 221.029296875 187.618164062 315.356445312 93 448 93 c 0
 584 93 713 172 742 325 c 1
 492 325 l 1
 507 415 l 1
 850 415 l 1
 856 415 l 1
 840 150 678 -3 431 -3 c 0
 245.040039062 -3 110.05078125 113.837890625 110.05078125 301.685546875 c 0
 110.05078125 325.969726562 112.291992188 351.443359375 117 378 c 0
 156 598 352 758 565 758 c 0
EndSplineSet
EndChar

StartChar: H
Encoding: 72 72 7
Width: 752
VWidth: -75
Flags: HW
HStem: 12 21G<80 184.544 567 672.531> 345 89<255 626> 717 20G<204.469 309 691.436 797>
LayerCount: 2
Fore
SplineSet
695 737 m 1
 797 737 l 1
 669 12 l 1
 567 12 l 1
 626 345 l 1
 240 345 l 1
 181 12 l 1
 80 12 l 1
 208 737 l 1
 309 737 l 1
 255 434 l 1
 641 434 l 1
 695 737 l 1
EndSplineSet
EndChar

StartChar: I
Encoding: 73 73 8
Width: 264
VWidth: -75
Flags: HW
HStem: 12 21G<80 184.531> 717 20G<204.469 309>
VStem: 80 229
LayerCount: 2
Fore
SplineSet
208 737 m 1
 309 737 l 1
 181 12 l 1
 80 12 l 1
 208 737 l 1
EndSplineSet
EndChar

StartChar: J
Encoding: 74 74 9
Width: 421
VWidth: -75
Flags: HW
HStem: -3.72754 82.7275<50 180.293> 717 20G<360.492 466>
LayerCount: 2
Fore
SplineSet
364 737 m 1
 466 737 l 1
 384 270 l 2
 350.754882812 80.689453125 247.58203125 -3.7275390625 79.205078125 -3.7275390625 c 0
 65.25 -3.7275390625 50.84765625 -3.1484375 36 -2 c 1
 50 79 l 1
 170 79 253 103 287 298 c 2
 364 737 l 1
EndSplineSet
EndChar

StartChar: K
Encoding: 75 75 10
Width: 686
VWidth: -75
Flags: HMW
VStem: 144 102<12 737>
LayerCount: 2
Fore
SplineSet
642 737 m 1
 781 737 l 1
 372 389 l 1
 677 12 l 1
 530 12 l 1
 248 385 l 1
 182 12 l 1
 80 12 l 1
 208 737 l 1
 310 737 l 1
 249 393 l 1
 642 737 l 1
EndSplineSet
EndChar

StartChar: L
Encoding: 76 76 11
Width: 555
VWidth: -75
Flags: HW
HStem: 12 89<198 534> 717 20G<204.478 310>
LayerCount: 2
Fore
SplineSet
208 737 m 1
 310 737 l 1
 198 101 l 1
 550 101 l 1
 534 12 l 1
 182 12 l 1
 80 12 l 1
 96 101 l 1
 208 737 l 1
EndSplineSet
EndChar

StartChar: M
Encoding: 77 77 12
Width: 890
VWidth: -75
Flags: HW
HStem: 12 21G<80 182.553 702 806.553> 735 20G<208.447 230.838 910.027 935>
LayerCount: 2
Fore
SplineSet
933 755 m 1
 935 755 l 1
 803 12 l 1
 702 12 l 1
 792 517 l 1
 789 517 l 1
 481 250 l 1
 270 513 l 1
 268 513 l 1
 179 12 l 1
 80 12 l 1
 212 755 l 1
 215 755 l 1
 508 385 l 1
 933 755 l 1
EndSplineSet
EndChar

StartChar: N
Encoding: 78 78 13
Width: 778
VWidth: -75
Flags: HW
HStem: 12 21G<80 182.557> 717 20G<207.474 229.977 718.468 823>
LayerCount: 2
Fore
SplineSet
722 737 m 1
 823 737 l 1
 692 -10 l 1
 690 -10 l 1
 271 518 l 1
 269 518 l 1
 179 12 l 1
 80 12 l 1
 211 755 l 1
 214 755 l 1
 631 233 l 1
 633 233 l 1
 722 737 l 1
EndSplineSet
EndChar

StartChar: O
Encoding: 79 79 14
Width: 863
VWidth: -75
Flags: HW
HStem: -3 96<345.693 554.928> 662 96<437.004 648.108>
VStem: 110 111<220.482 439.827> 773 110<315.917 535.054>
LayerCount: 2
Fore
SplineSet
547 662 m 0
 397 662 252 532 225 378 c 0
 222 361 221 344 221 328 c 0
 221 197 314 93 447 93 c 0
 597 93 742 224 769 378 c 0
 772 395 773 412 773 428 c 0
 773 559 680 662 547 662 c 0
564 758 m 0
 752 758 883 627 883 447 c 0
 883 425 881 402 877 378 c 0
 835 150 660 -3 430 -3 c 0
 241 -3 110 126 110 308 c 0
 110 331 112 354 116 378 c 0
 156 605 349 758 564 758 c 0
EndSplineSet
EndChar

StartChar: P
Encoding: 80 80 15
Width: 597
VWidth: -75
Flags: HW
HStem: 12 21G<79.585 184.138> 316 89<249.585 480.116> 648 89<292.585 510.869>
LayerCount: 2
Fore
SplineSet
249.584960938 405 m 1
 391.584960938 405 l 2
 483.584960938 406 535.584960938 460 547.584960938 526 c 0
 559.584960938 592 524.584960938 647 434.584960938 648 c 2
 292.584960938 648 l 1
 249.584960938 405 l 1
133.584960938 316 m 1
 148.584960938 405 l 1
 191.584960938 648 l 1
 207.584960938 737 l 1
 308.584960938 737 l 1
 439.584960938 737 l 2
 608.584960938 737 667.584960938 632 648.584960938 526 c 0
 629.584960938 420 538.584960938 316 365.584960938 316 c 2
 234.584960938 316 l 1
 180.584960938 12 l 1
 79.5849609375 12 l 1
 133.584960938 316 l 1
EndSplineSet
EndChar

StartChar: Q
Encoding: 81 81 16
Width: 867
VWidth: -75
Flags: HW
HStem: 0 96<344.679 546.792> 665 96<435.235 647.243>
VStem: 109.746 109.817<223.229 441.673> 772.437 110.751<321.689 538.069>
LayerCount: 2
Fore
SplineSet
563 761 m 0
 750.828125 761 883.1875 630.25 883.1875 449.87109375 c 0
 883.1875 427.618164062 881.366210938 404.576171875 877 381 c 0
 852.953566719 251.149260281 783.371445845 139.729632207 679.116443666 71.5083141083 c 1
 957 -253 l 1
 810 -253 l 1
 586.419689769 25.87436545 l 1
 538.579526047 9.11846229598 485.889772522 -4.14512174585e-015 429 0 c 0
 240.5234375 0 109.74609375 128.833007812 109.74609375 310.610351562 c 0
 109.74609375 333.297851562 111.750976562 356.815429688 116 381 c 0
 155 603 344 761 563 761 c 0
546 665 m 0
 396 665 251 535 224 381 c 0
 221.008789062 363.9375 219.563476562 347.157226562 219.563476562 330.805664062 c 0
 219.563476562 199.579101562 312.619140625 96 446 96 c 0
 596 96 741 227 768 381 c 0
 770.991210938 398.0625 772.436523438 414.831054688 772.436523438 431.16015625 c 0
 772.436523438 562.2109375 679.380859375 665 546 665 c 0
EndSplineSet
EndChar

StartChar: R
Encoding: 82 82 17
Width: 617
VWidth: -75
Flags: HW
HStem: 12 21G<80 184.553 461.934 599> 316 89<250 319> 648 89<293 514.894>
VStem: 550 102<474.169 614.128>
LayerCount: 2
Fore
SplineSet
250 405 m 1
 391 405 l 2
 483 406 536 460 548 526 c 0
 549 534 550 542 550 550 c 0
 550 605 513 647 434 648 c 2
 293 648 l 1
 250 405 l 1
134 316 m 1
 149 405 l 1
 192 648 l 1
 208 737 l 1
 309 737 l 1
 440 737 l 2
 589 737 652 656 652 564 c 0
 652 552 651 539 649 526 c 0
 633 433 559 340 422 320 c 1
 599 12 l 1
 472 12 l 1
 319 316 l 1
 235 316 l 1
 181 12 l 1
 80 12 l 1
 134 316 l 1
EndSplineSet
EndChar

StartChar: S
Encoding: 83 83 18
Width: 541
VWidth: -75
Flags: HW
HStem: 1 92<184.025 356.276> 667 86<318.102 475.076>
VStem: 153 101<475.186 603.875> 421 103<152.126 283.307>
LayerCount: 2
Fore
SplineSet
591 670 m 1
 510 601 l 1
 497 627 472 664 407 667 c 0
 404 667 402 667 399 667 c 0
 320 667 263 612 255 542 c 0
 255 539 254 536 254 533 c 0
 254 499 276 460 340 431 c 0
 406 401 440 383 464 364 c 0
 503 333 524 293 524 244 c 0
 524 210 519 174 501 136 c 0
 468 66 394 1 252 1 c 0
 245 1 238 2 231 2 c 0
 135 7 66 65 50 109 c 1
 136 182 l 1
 142 145 186 96 255 93 c 0
 259 93 262 93 266 93 c 0
 358 93 412 146 420 211 c 0
 421 216 421 221 421 226 c 0
 421 277 386 302 296 345 c 0
 243 370 205 393 180 429 c 0
 164 453 153 481 153 515 c 0
 153 548 157 583 175 619 c 0
 217 704 302 753 414 753 c 0
 417 753 423 753 426 753 c 0
 522 749 570 704 591 670 c 1
EndSplineSet
EndChar

StartChar: T
Encoding: 84 84 19
Width: 641
VWidth: -75
Flags: HW
HStem: 12 21G<270 375.522> 648 89<156 382 484 725>
LayerCount: 2
Fore
SplineSet
484 648 m 1
 372 12 l 1
 270 12 l 1
 382 648 l 1
 140 648 l 1
 156 737 l 1
 398 737 l 1
 500 737 l 1
 741 737 l 1
 725 648 l 1
 484 648 l 1
EndSplineSet
EndChar

StartChar: U
Encoding: 85 85 20
Width: 700
VWidth: -75
Flags: HW
HStem: -10 95<271.526 453.117> 717 20G<193.468 299 647.488 755>
VStem: 110 103<140.903 377.734>
LayerCount: 2
Fore
SplineSet
197 737 m 1
 299 737 l 1
 217 270 l 2
 214 254 213 239 213 225 c 0
 213 116 297 85 360 85 c 0
 431 85 543 130 569 270 c 2
 651 737 l 1
 755 737 l 1
 675 284 l 2
 633 48 448 -10 343 -10 c 0
 249 -10 110 38 110 214 c 0
 110 235 113 259 117 284 c 2
 197 737 l 1
EndSplineSet
EndChar

StartChar: V
Encoding: 86 86 21
Width: 661
VWidth: -75
Flags: HW
HStem: 717 20G<130 246.932 669.922 791>
LayerCount: 2
Fore
SplineSet
682 737 m 1
 791 737 l 1
 330 -9 l 1
 328 -9 l 1
 130 737 l 1
 242 737 l 1
 369 222 l 1
 371 222 l 1
 682 737 l 1
EndSplineSet
EndChar

StartChar: W
Encoding: 87 87 22
Width: 1026
VWidth: -75
Flags: HW
HStem: 717 20G<140 255.458 423 538.571 722.327 842 1004.44 1126>
LayerCount: 2
Fore
SplineSet
1017 737 m 1
 1126 737 l 1
 644 -9 l 1
 642 -9 l 1
 559 312 l 1
 557 312 l 1
 361 -9 l 1
 358 -9 l 1
 140 737 l 1
 250 737 l 1
 396 202 l 1
 398 202 l 1
 524 399 l 1
 423 737 l 1
 534 737 l 1
 590 492 l 1
 591 492 l 1
 734 737 l 1
 842 737 l 1
 622 400 l 1
 679 202 l 1
 681 202 l 1
 1017 737 l 1
EndSplineSet
EndChar

StartChar: X
Encoding: 88 88 23
Width: 673
VWidth: -75
Flags: HW
HStem: 12 21G<20 156.197 515.951 655> 717 20G<168 296.524 630.15 763>
LayerCount: 2
Fore
SplineSet
168 737 m 1
 287 737 l 1
 417 464 l 1
 647 737 l 1
 763 737 l 1
 459 390 l 1
 655 12 l 1
 525 12 l 1
 387 317 l 1
 140 12 l 1
 20 12 l 1
 346 389 l 1
 168 737 l 1
EndSplineSet
EndChar

StartChar: Y
Encoding: 89 89 24
Width: 691
VWidth: -75
Flags: HW
HStem: 12 21G<311 415.533> 717 20G<159 291.747 683.291 820>
LayerCount: 2
Fore
SplineSet
159 737 m 1
 282 737 l 1
 436 421 l 1
 700 737 l 1
 820 737 l 1
 471 346 l 1
 412 12 l 1
 311 12 l 1
 370 348 l 1
 159 737 l 1
EndSplineSet
EndChar

StartChar: Z
Encoding: 90 90 25
Width: 646
VWidth: -75
Flags: HW
HStem: 12 89<192 598> 648 89<198 583>
LayerCount: 2
Fore
SplineSet
60 12 m 1
 76 101 l 1
 583 648 l 1
 182 648 l 1
 198 737 l 1
 716 737 l 1
 700 648 l 1
 192 101 l 1
 614 101 l 1
 598 12 l 1
 60 12 l 1
EndSplineSet
EndChar

StartChar: at
Encoding: 64 64 27
Width: 844
VWidth: -75
Flags: HW
HStem: -6 74<307.411 563.768> 182 67<351.632 461.29 605.105 688.567> 496 67<410.573 533.125> 682 73<403.597 629.875>
VStem: 75.8662 88.5098<204.036 435.328> 253.251 79.625<267.726 412.835> 550.928 52.8662<285.479 416.812> 756.803 80.5586<334.424 554.902>
LayerCount: 2
Fore
SplineSet
406 249 m 0
 466 249 523 299 544 372 c 0
 548.680664062 388.048828125 550.927734375 403.104492188 550.927734375 416.811523438 c 0
 550.927734375 464.598632812 523.625976562 496 477 496 c 0
 416 496 359 440 339 372 c 0
 334.879882812 357.904296875 332.875976562 344.137695312 332.875976562 331.219726562 c 0
 332.875976562 284.572265625 359.01171875 249 406 249 c 0
528 230 m 0
 524.23046875 241.307617188 523.361328125 251.456054688 523.361328125 258.4140625 c 0
 523.361328125 264.37890625 524 268 524 268 c 1
 522 268 l 1
 489 214 440 182 370 182 c 0
 302.170898438 182 253.250976562 229.598632812 253.250976562 309.526367188 c 0
 253.250976562 328.58203125 256.032226562 349.475585938 262 372 c 0
 293 490 393 563 486 563 c 0
 538 563 568 535 578 497 c 1
 581 497 l 1
 600 567 l 1
 681 567 l 1
 681 567 626 382 610 324 c 0
 605.657226562 308.162109375 603.793945312 295.521484375 603.793945312 285.478515625 c 0
 603.793945312 256.206054688 619.620117188 249 636 249 c 0
 661 249 692 269 714 301 c 0
 729 324 744 352 752 395 c 0
 755.217773438 413.115234375 756.802734375 430.990234375 756.802734375 448.422851562 c 0
 756.802734375 577.26171875 670.262695312 682 517 682 c 0
 355 682 199 542 170 375 c 0
 166.216796875 353.719726562 164.375976562 333.1796875 164.375976562 313.502929688 c 0
 164.375976562 166.74609375 266.75390625 68 429 68 c 0
 516 68 615 101 677 154 c 1
 726 95 l 1
 647 32 533 -6 416 -6 c 0
 208.515625 -6 75.8662109375 107.811523438 75.8662109375 296.205078125 c 0
 75.8662109375 321.188476562 78.19921875 347.484375 83 375 c 0
 121 592 312 755 530 755 c 0
 722.12890625 755 837.361328125 634.60546875 837.361328125 465.696289062 c 0
 837.361328125 442.952148438 835.272460938 419.328125 831 395 c 0
 820 330 803 299 773 259 c 0
 738 212 678 181 613 181 c 0
 570 181 540 197 528 230 c 0
EndSplineSet
EndChar

StartChar: a
Encoding: 97 97 28
Width: 571
VWidth: -75
Flags: HW
HStem: -5.44629 80.6123<170.764 335.869> 259.42 74.9824<197.926 438.425> 462.031 82.9688<252.943 418.073>
VStem: 55 93.4141<97.8513 212.033> 456.051 102.398<316.393 424.894>
LayerCount: 2
Fore
SplineSet
441 241 m 1
 385.87890625 253.918945312 342.368164062 259.419921875 297.7734375 259.419921875 c 0
 290.58984375 259.419921875 283.352539062 259.27734375 276 259 c 0
 202 256 159 214 150 166 c 0
 148.947265625 160.604492188 148.4140625 155.225585938 148.4140625 149.935546875 c 0
 148.4140625 115.026367188 171.6328125 83.947265625 222 77 c 0
 231.176757812 75.7763671875 240.435546875 75.166015625 249.692382812 75.166015625 c 0
 331.225585938 75.166015625 405.900390625 124.701171875 436 215 c 0
 437 218 437.69140625 221.048828125 438 223 c 2
 441 241 l 1
502 14 m 1
 400 14 l 1
 412 85 l 1
 409 85 l 1
 369.188476562 17.9833984375 296.32421875 -5.4462890625 229 -5.4462890625 c 0
 194.860351562 -5.4462890625 164.693359375 -1.2529296875 141.490234375 9 c 0
 98.490234375 28 55 72 55 128 c 0
 55 139.228515625 55.4345703125 153.459960938 58 166 c 0
 76 254 146.938476562 324.827148438 263 333 c 0
 276.610351562 333.958007812 289.155273438 334.40234375 301.091796875 334.40234375 c 0
 351.42578125 334.40234375 390.952148438 326.5078125 454 316 c 1
 455.372070312 327.203125 456.05078125 337.7265625 456.05078125 347.58203125 c 0
 456.05078125 423.942382812 415.283203125 460.228515625 340 462 c 0
 338.91015625 462.020507812 337.823242188 462.03125 336.739257812 462.03125 c 0
 286.078125 462.03125 241.329101562 439.288085938 210 406 c 1
 160 464 l 1
 200 505 273 545 365 545 c 0
 486.002929688 545 558.44921875 476.2734375 558.44921875 359.481445312 c 0
 558.44921875 341.145507812 556.6640625 321.625 553 301 c 2
 502 14 l 1
EndSplineSet
EndChar

StartChar: r
Encoding: 114 114 29
Width: 469
VWidth: -75
Flags: HW
HStem: 12 21G<70 174.533> 462.188 85.8115<316.396 439.521> 508 20G<157.473 262>
LayerCount: 2
Fore
SplineSet
534 497 m 1
 451 425 l 1
 434.135742188 448.421875 407.6171875 462.188476562 370.62109375 462.188476562 c 0
 368.127929688 462.188476562 365.587890625 462.125976562 363 462 c 0
 285 457 239 398 224 312 c 2
 171 12 l 1
 70 12 l 1
 161 528 l 1
 262 528 l 1
 253 476 l 1
 256 476 l 1
 287 512 337 548 409 548 c 0
 461 548 504 530 534 497 c 1
EndSplineSet
EndChar

StartChar: b
Encoding: 98 98 30
Width: 655
VWidth: -75
Flags: HW
HStem: 1 86<266.329 437.566> 12 21G<60.1826 164.754> 456 86<332.891 495.214> 777 20G<194.667 299.183>
VStem: 561.214 98.7861<212.076 389.677>
LayerCount: 2
Fore
SplineSet
446.182617188 542 m 0
 563.330078125 542 660 458.51171875 660 324.388671875 c 0
 660 307.383789062 658.4453125 289.565429688 655.182617188 271 c 0
 626.182617188 107 497.182617188 1 351.182617188 1 c 0
 259.182617188 1 207.182617188 44 179.182617188 96 c 1
 176.182617188 96 l 1
 161.182617188 12 l 1
 60.1826171875 12 l 1
 198.182617188 797 l 1
 299.182617188 797 l 1
 238.182617188 449 l 1
 241.182617188 449 l 1
 282.182617188 495 345.182617188 542 446.182617188 542 c 0
415.182617188 456 m 0
 318.182617188 456 225.182617188 378 206.182617188 271 c 0
 203.977539062 258.235351562 202.91796875 245.955078125 202.91796875 234.219726562 c 0
 202.91796875 144.822265625 264.438476562 87 350.182617188 87 c 0
 447.182617188 87 540.182617188 169 558.182617188 271 c 0
 560.227539062 282.588867188 561.213867188 293.931640625 561.213867188 304.935546875 c 0
 561.213867188 390.788085938 501.162109375 456 415.182617188 456 c 0
EndSplineSet
EndChar

StartChar: c
Encoding: 99 99 31
Width: 563
VWidth: -75
Flags: HW
HStem: 0 87<234.248 408.142> 458 86<297.448 468.416>
VStem: 74.7959 97.624<149.503 330.213>
LayerCount: 2
Fore
SplineSet
400 544 m 0
 470 544 541 512 583 459 c 1
 507 397 l 1
 477 437 436 458 385 458 c 0
 286 458 194 374 176 272 c 0
 173.581054688 258.573242188 172.419921875 245.688476562 172.419921875 233.41015625 c 0
 172.419921875 144.180664062 233.732421875 87 319 87 c 0
 370 87 426 112 466 152 c 1
 519 87 l 1
 458 33 391 0 304 0 c 0
 170.692382812 0 74.7958984375 81.056640625 74.7958984375 215.647460938 c 0
 74.7958984375 233.509765625 76.4853515625 252.315429688 80 272 c 0
 108 430 237 544 400 544 c 0
EndSplineSet
EndChar

StartChar: d
Encoding: 100 100 32
Width: 662
VWidth: -75
Flags: HW
HStem: 1 86<237.77 402.831> 12 21G<482.684 588.2> 456 86<296.057 467.652> 777 20G<617.188 722.684>
VStem: 75 97.6875<153.197 329.712>
LayerCount: 2
Fore
SplineSet
722.68359375 797 m 1
 584.68359375 12 l 1
 482.68359375 12 l 1
 497.68359375 97 l 1
 494.68359375 97 l 1
 452.68359375 48 393.68359375 1 289.68359375 1 c 0
 174.80859375 1 75 84.265625 75 219.018554688 c 0
 75 235.586914062 76.5087890625 252.93359375 79.68359375 271 c 0
 108.68359375 433 246.68359375 542 384.68359375 542 c 0
 477.68359375 542 529.68359375 499 556.68359375 448 c 1
 559.68359375 448 l 1
 620.68359375 797 l 1
 722.68359375 797 l 1
384.68359375 456 m 0
 287.68359375 456 193.68359375 373 175.68359375 271 c 0
 173.662109375 259.544921875 172.6875 248.340820312 172.6875 237.478515625 c 0
 172.6875 151.615234375 233.578125 87 319.68359375 87 c 0
 416.68359375 87 508.68359375 161 527.68359375 271 c 0
 529.9140625 283.557617188 530.986328125 295.71484375 530.986328125 307.39453125 c 0
 530.986328125 395.233398438 470.299804688 456 384.68359375 456 c 0
EndSplineSet
EndChar

StartChar: e
Encoding: 101 101 33
Width: 595
VWidth: -75
Flags: HW
HStem: 0 86<231.704 413.813> 248 78<186.544 503.31> 461 84<282.249 451.302>
VStem: 74.7031 93.8447<144.88 247.628> 503.311 96.6895<326.348 408.05>
LayerCount: 2
Fore
SplineSet
186.543945312 326 m 1
 502.543945312 326 l 2
 503.046875 329.431640625 503.310546875 333.235351562 503.310546875 337.323242188 c 0
 503.310546875 382.077148438 471.671875 461 374.543945312 461 c 0
 298.543945312 461 216.543945312 417 186.543945312 326 c 1
389.543945312 545 m 0
 528.543945312 545 600 441.747070312 600 333.256835938 c 0
 600 304.600585938 595.693359375 275.580078125 587.543945312 248 c 1
 170.543945312 248 l 1
 169.193359375 238.963867188 168.547851562 230.299804688 168.547851562 222.006835938 c 0
 168.547851562 132.103515625 244.384765625 86 318.543945312 86 c 0
 386.543945312 86 434.543945312 115 477.543945312 158 c 1
 486.543945312 147 518.543945312 108 530.543945312 94 c 1
 464.543945312 34 404.543945312 0 303.543945312 0 c 0
 164.734375 0 74.703125 79.2646484375 74.703125 215.170898438 c 0
 74.703125 234.938476562 76.607421875 255.905273438 80.5439453125 278 c 0
 108.543945312 437 231.543945312 545 389.543945312 545 c 0
EndSplineSet
EndChar

StartChar: f
Encoding: 102 102 34
Width: 369
VWidth: -75
Flags: HW
HStem: 12 21G<96 201.527> 443 85<99 172 289 402> 713.062 85.3555<375.185 485.256>
VStem: 96 102<12 55.6671>
LayerCount: 2
Fore
SplineSet
84 443 m 1
 99 528 l 1
 187 528 l 1
 189 543 l 1
 217.90234375 708.95703125 316.345703125 798.41796875 465.689453125 798.41796875 c 0
 476.52734375 798.41796875 487.6328125 797.947265625 499 797 c 1
 499 797 489 739 484 713 c 0
 481.680664062 713.041015625 479.385742188 713.0625 477.116210938 713.0625 c 0
 369.775390625 713.0625 317.461914062 666.473632812 292 547 c 1
 289 528 l 1
 417 528 l 1
 402 443 l 1
 274 443 l 1
 198 12 l 1
 96 12 l 1
 172 443 l 1
 84 443 l 1
EndSplineSet
EndChar

StartChar: g
Encoding: 103 103 35
Width: 657
VWidth: -75
Flags: HW
HStem: -275 89<185.359 372.874> 0 86<241.214 404.474> 456 85<299.527 470.026> 508 20G<571.296 677>
VStem: 76.4805 97.5234<153.792 329.691>
LayerCount: 2
Fore
SplineSet
291 0 m 0
 173.426757812 0 76.48046875 87.26953125 76.48046875 220.1171875 c 0
 76.48046875 236.416992188 77.939453125 253.404296875 81 271 c 0
 110 433 243 541 386 541 c 0
 478 541 529 498 557 447 c 1
 560 447 l 1
 575 528 l 1
 677 528 l 1
 594 57 l 2
 559 -139 474 -275 255 -275 c 0
 164 -275 90 -234 60 -179 c 1
 140 -112 l 1
 165 -160 210 -186 273 -186 c 0
 365 -186 457 -139 486 25 c 2
 498 93 l 1
 495 93 l 1
 455 47 396 0 291 0 c 0
321 86 m 0
 418 86 510 164 529 271 c 0
 531.229492188 283.909179688 532.302734375 296.336914062 532.302734375 308.217773438 c 0
 532.302734375 397.5703125 471.616210938 456 386 456 c 0
 289 456 195 373 177 271 c 0
 174.978515625 259.544921875 174.00390625 248.329101562 174.00390625 237.443359375 c 0
 174.00390625 151.403320312 234.893554688 86 321 86 c 0
EndSplineSet
EndChar

StartChar: h
Encoding: 104 104 36
Width: 610
VWidth: -75
Flags: HW
HStem: 12 21G<69.7666 175.308 433.767 539.256> 462.271 85.7295<324.034 454.634> 777 20G<204.251 309.767>
VStem: 490.337 104.663<291.272 426.698>
LayerCount: 2
Fore
SplineSet
418.766601562 548 m 0
 517.318359375 548 595 486.193359375 595 374.086914062 c 0
 595 361.063476562 593.952148438 347.362304688 591.766601562 333 c 2
 535.766601562 12 l 1
 433.766601562 12 l 1
 487.766601562 318 l 2
 489.474609375 329.0390625 490.336914062 339.75 490.336914062 350.017578125 c 0
 490.336914062 415.047851562 455.749023438 462.270507812 382.536132812 462.270507812 c 0
 379.352539062 462.270507812 376.096679688 462.180664062 372.766601562 462 c 0
 296.766601562 458 241.766601562 394 225.766601562 317 c 2
 171.766601562 12 l 1
 69.7666015625 12 l 1
 207.766601562 797 l 1
 309.766601562 797 l 1
 251.766601562 468 l 1
 285.766601562 506 340.766601562 548 418.766601562 548 c 0
EndSplineSet
EndChar

StartChar: i
Encoding: 105 105 37
Width: 244
VWidth: -75
Flags: HW
HStem: 12 21G<70.0479 174.575> 508 20G<157.521 262.048> 638 124<199.247 282.849>
VStem: 178.096 125.904<659.524 740.476>
LayerCount: 2
Fore
SplineSet
179.047851562 700 m 0
 185.047851562 734 218.047851562 762 252.047851562 762 c 0
 282.41015625 762 304 739.671875 304 710.680664062 c 0
 304 707.20703125 303.689453125 703.637695312 303.047851562 700 c 0
 297.047851562 666 264.047851562 638 230.047851562 638 c 0
 199.685546875 638 178.095703125 660.328125 178.095703125 689.319335938 c 0
 178.095703125 692.79296875 178.40625 696.362304688 179.047851562 700 c 0
161.047851562 528 m 1
 262.047851562 528 l 1
 171.047851562 12 l 1
 70.0478515625 12 l 1
 161.047851562 528 l 1
EndSplineSet
EndChar

StartChar: j
Encoding: 106 106 38
Width: 287
VWidth: -75
Flags: HW
HStem: -233.917 80.917<-42 42.5277> 508 20G<201.471 306> 638 124<243.199 326.801>
VStem: 222.048 125.904<659.524 740.476>
LayerCount: 2
Fore
SplineSet
223 700 m 0
 229 734 262 762 296 762 c 0
 326.362304688 762 347.952148438 739.671875 347.952148438 710.680664062 c 0
 347.952148438 707.20703125 347.641601562 703.637695312 347 700 c 0
 341 666 308 638 274 638 c 0
 243.637695312 638 222.047851562 660.328125 222.047851562 689.319335938 c 0
 222.047851562 692.79296875 222.358398438 696.362304688 223 700 c 0
205 528 m 1
 306 528 l 1
 220 41 l 2
 186.583007812 -148.663085938 113.197265625 -233.916992188 -12.6806640625 -233.916992188 c 0
 -26.1787109375 -233.916992188 -40.279296875 -232.936523438 -55 -231 c 1
 -42 -153 l 1
 45 -153 91 -119 124 69 c 2
 205 528 l 1
EndSplineSet
EndChar

StartChar: k
Encoding: 107 107 39
Width: 536
VWidth: -75
Flags: HW
HStem: 12 21G<65 169.485 381.288 525> 508 20G<443.798 591> 777 20G<199.484 304>
LayerCount: 2
Fore
SplineSet
203 797 m 1
 304 797 l 1
 216 295 l 1
 218 295 l 1
 465 528 l 1
 591 528 l 1
 319 286 l 1
 525 12 l 1
 395 12 l 1
 214 276 l 1
 212 276 l 1
 166 12 l 1
 65 12 l 1
 203 797 l 1
EndSplineSet
EndChar

StartChar: l
Encoding: 108 108 40
Width: 239
VWidth: -75
Flags: HW
HStem: 12 21G<70 174.516> 777 20G<204.484 309>
VStem: 70 239
LayerCount: 2
Fore
SplineSet
208 797 m 1
 309 797 l 1
 171 12 l 1
 70 12 l 1
 208 797 l 1
EndSplineSet
EndChar

StartChar: m
Encoding: 109 109 41
Width: 912
VWidth: -75
Flags: HMW
HStem: 505 23G<117.2 218.2>
VStem: 117.2 101<12 418 480 528> 450.2 101<12 412> 784.2 101<12 413>
LayerCount: 2
Fore
SplineSet
737.200195312 548 m 0
 833.791015625 548 897.997070312 488.62890625 897.997070312 380.71875 c 0
 897.997070312 365.73828125 896.759765625 349.822265625 894.200195312 333 c 2
 838.200195312 12 l 1
 737.200195312 12 l 1
 791.200195312 317 l 2
 793.240234375 330.184570312 794.295898438 342.92578125 794.295898438 355.017578125 c 0
 794.295898438 417.219726562 766.380859375 462.266601562 701.079101562 462.266601562 c 0
 698.193359375 462.266601562 695.233398438 462.178710938 692.200195312 462 c 0
 614.200195312 457 573.200195312 398 558.200195312 312 c 2
 505.200195312 12 l 1
 403.200195312 12 l 1
 457.200195312 317 l 2
 459.163085938 329.680664062 460.16796875 341.951171875 460.16796875 353.629882812 c 0
 460.16796875 416.548828125 430.985351562 462.266601562 365.086914062 462.266601562 c 0
 362.1953125 462.266601562 359.233398438 462.178710938 356.200195312 462 c 0
 279.200195312 457 240.200195312 399 224.200195312 315 c 2
 171.200195312 12 l 1
 70.2001953125 12 l 1
 161.200195312 528 l 1
 262.200195312 528 l 1
 253.200195312 480 l 1
 256.200195312 480 l 1
 285.200195312 514 332.200195312 548 402.200195312 548 c 0
 473.200195312 548 528.200195312 516 552.200195312 455 c 1
 588.200195312 507 648.200195312 548 737.200195312 548 c 0
EndSplineSet
EndChar

StartChar: n
Encoding: 110 110 42
Width: 610
VWidth: -75
Flags: HW
HStem: 12 21G<69.7666 175.3 433.767 539.256> 462.267 85.7334<322.218 454.634> 508 20G<157.239 262.767>
VStem: 490.337 104.663<291.272 426.267>
LayerCount: 2
Fore
SplineSet
418.766601562 548 m 0
 517.318359375 548 595 486.193359375 595 374.086914062 c 0
 595 361.063476562 593.952148438 347.362304688 591.766601562 333 c 2
 535.766601562 12 l 1
 433.766601562 12 l 1
 487.766601562 317 l 2
 489.474609375 328.0390625 490.336914062 338.767578125 490.336914062 349.064453125 c 0
 490.336914062 414.325195312 455.70703125 462.266601562 382.40234375 462.266601562 c 0
 379.26171875 462.266601562 376.049804688 462.178710938 372.766601562 462 c 0
 295.766601562 457 238.766601562 391 224.766601562 312 c 2
 171.766601562 12 l 1
 69.7666015625 12 l 1
 160.766601562 528 l 1
 262.766601562 528 l 1
 252.766601562 472 l 1
 254.766601562 472 l 1
 288.766601562 509 343.766601562 548 418.766601562 548 c 0
EndSplineSet
EndChar

StartChar: o
Encoding: 111 111 43
Width: 624
VWidth: -75
Flags: HW
HStem: 0 88<238.473 409.335> 457 88<297.74 466.462>
VStem: 75.1338 98.4014<154.339 327.658> 531.598 97.4023<216.098 389.866>
LayerCount: 2
Fore
SplineSet
385.56640625 457 m 0
 288.56640625 457 194.56640625 374 176.56640625 272 c 0
 174.521484375 260.411132812 173.53515625 249.081054688 173.53515625 238.099609375 c 0
 173.53515625 152.42578125 233.586914062 88 319.56640625 88 c 0
 416.56640625 88 510.56640625 170 528.56640625 272 c 0
 530.611328125 283.588867188 531.59765625 294.931640625 531.59765625 305.935546875 c 0
 531.59765625 391.788085938 471.545898438 457 385.56640625 457 c 0
400.56640625 545 m 0
 535.741210938 545 629 450.095703125 629 321.4765625 c 0
 629 305.467773438 627.5546875 288.935546875 624.56640625 272 c 0
 597.56640625 118 480.56640625 0 304.56640625 0 c 0
 168.494140625 0 75.1337890625 94.1240234375 75.1337890625 222.580078125 c 0
 75.1337890625 238.560546875 76.5791015625 255.072265625 79.56640625 272 c 0
 106.56640625 425 234.56640625 545 400.56640625 545 c 0
EndSplineSet
EndChar

StartChar: p
Encoding: 112 112 44
Width: 669
VWidth: -75
Flags: HW
HStem: 0 86<279.37 451.305> 455 86<348.571 508.186> 507 20G<160.795 265.315>
VStem: 575.312 98.6885<212.431 388.374>
LayerCount: 2
Fore
SplineSet
26.3154296875 -257 m 1
 164.315429688 527 l 1
 265.315429688 527 l 1
 251.315429688 446 l 1
 254.315429688 446 l 1
 296.315429688 494 359.315429688 541 459.315429688 541 c 0
 574.19140625 541 674 456.1484375 674 322.459960938 c 0
 674 306.022460938 672.490234375 288.846679688 669.315429688 271 c 0
 641.315429688 110 512.315429688 0 364.315429688 0 c 0
 272.315429688 0 218.315429688 42 191.315429688 93 c 1
 188.315429688 93 l 1
 127.315429688 -257 l 1
 26.3154296875 -257 l 1
363.315429688 86 m 0
 460.315429688 86 554.315429688 169 572.315429688 271 c 0
 574.336914062 282.455078125 575.311523438 293.659179688 575.311523438 304.521484375 c 0
 575.311523438 390.384765625 514.421875 455 428.315429688 455 c 0
 331.315429688 455 239.315429688 381 220.315429688 271 c 0
 218.0859375 258.442382812 217.012695312 246.28515625 217.012695312 234.60546875 c 0
 217.012695312 146.766601562 277.69921875 86 363.315429688 86 c 0
EndSplineSet
EndChar

StartChar: q
Encoding: 113 113 45
Width: 645
VWidth: -75
Flags: HW
HStem: 0 86<229.595 393.632> 455 86<287.008 458.416> 508 20G<559.628 665.085>
VStem: 65 98.0537<151.295 329.637>
LayerCount: 2
Fore
SplineSet
279.084960938 0 m 0
 162.25 0 65 80.693359375 65 215.729492188 c 0
 65 233.256835938 66.638671875 251.69921875 70.0849609375 271 c 0
 99.0849609375 433 227.084960938 541 374.084960938 541 c 0
 466.084960938 541 518.084960938 499 545.084960938 447 c 1
 549.084960938 447 l 1
 563.084960938 528 l 1
 665.084960938 528 l 1
 527.084960938 -256 l 1
 425.084960938 -256 l 1
 486.084960938 94 l 1
 483.084960938 94 l 1
 449.084960938 53 392.084960938 0 279.084960938 0 c 0
309.084960938 86 m 0
 406.084960938 86 499.084960938 164 518.084960938 271 c 0
 520.290039062 283.764648438 521.349609375 296.044921875 521.349609375 307.780273438 c 0
 521.349609375 397.177734375 459.829101562 455 374.084960938 455 c 0
 277.084960938 455 184.084960938 373 166.084960938 271 c 0
 164.040039062 259.411132812 163.053710938 248.068359375 163.053710938 237.064453125 c 0
 163.053710938 151.211914062 223.10546875 86 309.084960938 86 c 0
EndSplineSet
EndChar

StartChar: s
Encoding: 115 115 46
Width: 483
VWidth: -75
Flags: HW
HStem: -7.24707 80.9639<158.386 310.081> 468.283 76.9912<255.587 389.37>
VStem: 125.75 98.2295<337.634 438.052> 344.215 100.41<103.913 200.981>
LayerCount: 2
Fore
SplineSet
488 481 m 1
 410 420 l 1
 400 441 372 465 331 468 c 0
 327.956054688 468.190429688 324.97265625 468.283203125 322.051757812 468.283203125 c 0
 263.547851562 468.283203125 231.666992188 431.001953125 225 391 c 0
 224.34375 387.454101562 223.979492188 383.908203125 223.979492188 380.37109375 c 0
 223.979492188 356.9765625 239.879882812 333.979492188 292 314 c 0
 348 292 375 279 396 264 c 0
 429.450195312 239.672851562 444.625 206.467773438 444.625 169.109375 c 0
 444.625 145.041992188 437.497070312 119.251953125 423 93 c 0
 392.326171875 36.4443359375 331 -7.2470703125 219.97265625 -7.2470703125 c 0
 215.380859375 -7.2470703125 210.72265625 -7.166015625 206 -7 c 0
 121 -5 70 31 50 73 c 1
 130 135 l 1
 139 109 167 77 223 74 c 0
 226.716796875 73.8095703125 230.341796875 73.716796875 233.877929688 73.716796875 c 0
 304.55078125 73.716796875 336.333984375 110.858398438 343 148 c 0
 343.793945312 152.30859375 344.21484375 156.372070312 344.21484375 160.2421875 c 0
 344.21484375 190.500976562 318.4765625 208.854492188 244 239 c 0
 198 257 168 276 147 302 c 0
 133 319 125.75 341.75 125.75 366.875 c 0
 125.75 392 131 419.5 146 446 c 0
 181.299804688 506.104492188 246 545.274414062 335.55078125 545.274414062 c 0
 339.666992188 545.274414062 343.817382812 545.18359375 348 545 c 0
 429 541 469 506 488 481 c 1
EndSplineSet
EndChar

StartChar: t
Encoding: 116 116 47
Width: 383
VWidth: -75
Flags: HW
HStem: 0 91.0713<228.05 332.038> 441.894 86<105 161 278 408>
VStem: 111.586 106.229<101.616 297.269>
LayerCount: 2
Fore
SplineSet
90 441.893554688 m 1
 105 527.893554688 l 1
 176 527.893554688 l 1
 197 647.893554688 l 1
 299 647.893554688 l 1
 278 527.893554688 l 1
 423 527.893554688 l 1
 408 441.893554688 l 1
 263 441.893554688 l 1
 225 227.893554688 l 2
 220.25390625 200.603515625 217.814453125 178.358398438 217.814453125 160.353515625 c 0
 217.814453125 107.310546875 238.981445312 91.0712890625 284.676757812 91.0712890625 c 0
 301.904296875 91.0712890625 322.618164062 93.3798828125 347 96.8935546875 c 1
 332 11.8935546875 l 1
 297.920898438 4.1103515625 267.337890625 0 240.577148438 0 c 0
 157.797851562 0 111.5859375 39.330078125 111.5859375 130.94140625 c 0
 111.5859375 150.5 113.692382812 172.442382812 118 196.893554688 c 2
 161 441.893554688 l 1
 90 441.893554688 l 1
EndSplineSet
EndChar

StartChar: u
Encoding: 117 117 48
Width: 595
VWidth: -75
Flags: HW
HStem: -8 85.7334<230.132 362.549> 12 21G<422 527.527> 508 20G<145.511 251 509.467 615>
VStem: 89.7666 104.663<113.733 248.728>
LayerCount: 2
Fore
SplineSet
266 -8 m 0
 167.448242188 -8 89.7666015625 53.806640625 89.7666015625 165.913085938 c 0
 89.7666015625 178.936523438 90.814453125 192.637695312 93 207 c 2
 149 528 l 1
 251 528 l 1
 197 223 l 2
 195.291992188 211.9609375 194.4296875 201.232421875 194.4296875 190.935546875 c 0
 194.4296875 125.674804688 229.059570312 77.7333984375 302.364257812 77.7333984375 c 0
 305.504882812 77.7333984375 308.716796875 77.8212890625 312 78 c 0
 389 83 446 149 460 228 c 2
 513 528 l 1
 615 528 l 1
 524 12 l 1
 422 12 l 1
 432 68 l 1
 429 68 l 1
 395 31 341 -8 266 -8 c 0
EndSplineSet
EndChar

StartChar: v
Encoding: 118 118 49
Width: 563
VWidth: -75
Flags: HW
HStem: 12 21G<220.155 346.744> 508 20G<100 216.335 521.67 638>
LayerCount: 2
Fore
SplineSet
533 528 m 1
 638 528 l 1
 335 12 l 1
 333 12 l 1
 232 12 l 1
 225 12 l 1
 100 528 l 1
 212 528 l 1
 300 122 l 1
 303 122 l 1
 533 528 l 1
EndSplineSet
EndChar

StartChar: w
Encoding: 119 119 50
Width: 882
VWidth: -75
Flags: HW
HStem: 12 21G<192.279 314.076 565.877 694.581> 508 20G<100 214.935 462.149 591.878 841.074 957>
LayerCount: 2
Fore
SplineSet
851 528 m 1
 957 528 l 1
 684 12 l 1
 681 12 l 1
 579 12 l 1
 569 12 l 1
 507 409 l 1
 504 409 l 1
 304 12 l 1
 202 12 l 1
 196 12 l 1
 100 528 l 1
 212 528 l 1
 271 126 l 1
 274 126 l 1
 472 528 l 1
 477 528 l 1
 580 528 l 1
 589 528 l 1
 647 125 l 1
 651 125 l 1
 851 528 l 1
EndSplineSet
EndChar

StartChar: x
Encoding: 120 120 51
Width: 533
VWidth: -75
Flags: HW
HStem: 12 21G<10 148.085 388.251 523> 508 20G<120 245.568 464.5 593>
LayerCount: 2
Fore
SplineSet
523 12 m 1
 398 12 l 1
 301 211 l 1
 131 12 l 1
 10 12 l 1
 259 281 l 1
 120 528 l 1
 235 528 l 1
 328 352 l 1
 482 528 l 1
 593 528 l 1
 369 284 l 1
 523 12 l 1
EndSplineSet
EndChar

StartChar: y
Encoding: 121 121 52
Width: 558
VWidth: -75
Flags: HW
HStem: 508 20G<100 216.433 521.621 638>
LayerCount: 2
Fore
SplineSet
533 528 m 1
 638 528 l 1
 173 -256 l 1
 60 -256 l 1
 235 16 l 1
 100 528 l 1
 212 528 l 1
 302 122 l 1
 533 528 l 1
EndSplineSet
EndChar

StartChar: z
Encoding: 122 122 53
Width: 532
VWidth: -75
Flags: HW
HStem: 12 86<169 487> 65 59<132 166> 442 86<134 427 473 552>
LayerCount: 2
Fore
SplineSet
119 442 m 1
 134 528 l 1
 567 528 l 1
 552 442 l 1
 172.058881871 100.747403038 l 1
 171.593220339 98 l 1
 502 98 l 1
 487 12 l 1
 35 12 l 1
 50 98 l 1
 424.934850822 440.115619848 l 1
 425.254237288 442 l 1
 119 442 l 1
EndSplineSet
EndChar

StartChar: ampersand
Encoding: 38 38 54
Width: 676
VWidth: -75
Flags: HW
HStem: 12 86<226.661 442> 350 77<318.861 486 601 660> 672.205 82.2891<345.259 500.385>
VStem: 85.1152 104.756<134.325 266.675> 177.652 100.356<467.065 608.565>
LayerCount: 2
Fore
SplineSet
442 98 m 1
 486 351 l 1
 431 351 382 351 368 350 c 0
 275 346 206 294 192 214 c 0
 190.571289062 205.731445312 189.87109375 197.94140625 189.87109375 190.620117188 c 0
 189.87109375 126.21875 244.00390625 98 332 98 c 0
 346 98 406 98 442 98 c 1
514 508 m 1
 615 508 l 1
 601 427 l 1
 640 427 670 428 674 428 c 2
 660 350 l 1
 649 350 621 350 587 350 c 1
 528 12 l 1
 520 12 l 1
 427 12 l 1
 306 12 l 2
 147.23828125 12 85.115234375 76.6796875 85.115234375 166.875976562 c 0
 85.115234375 180.078125 86.4462890625 193.827148438 89 208 c 0
 106 306 177 364 262 392 c 1
 212.55078125 409.981445312 177.65234375 467.571289062 177.65234375 530.612304688 c 0
 177.65234375 537.688476562 178.091796875 544.833984375 179 552 c 0
 193.37890625 667.030273438 302.403320312 754.494140625 432.083984375 754.494140625 c 0
 437.685546875 754.494140625 443.326171875 754.331054688 449 754 c 0
 526 749 588 713 613 664 c 1
 538 602 l 1
 519 646 480 669 431 672 c 0
 428.458007812 672.137695312 425.920898438 672.205078125 423.391601562 672.205078125 c 0
 352.264648438 672.205078125 286.725585938 618.629882812 279 552 c 0
 278.3359375 546.353515625 278.008789062 540.831054688 278.008789062 535.447265625 c 0
 278.008789062 476.005859375 317.8125 433.584960938 382 429 c 0
 394 428 444 427 500 427 c 1
 514 508 l 1
EndSplineSet
EndChar

StartChar: colon
Encoding: 58 58 55
Width: 264
VWidth: -75
Flags: HW
HStem: 12 124<85.2983 182.702> 404 124<155.298 252.702>
VStem: 72 124<25.2983 122.702> 142 124<417.298 514.702>
LayerCount: 2
Fore
SplineSet
142 466 m 0
 142 500 170 528 204 528 c 0
 238 528 266 500 266 466 c 0
 266 432 238 404 204 404 c 0
 170 404 142 432 142 466 c 0
72 74 m 0
 72 108 100 136 134 136 c 0
 168 136 196 108 196 74 c 0
 196 40 168 12 134 12 c 0
 100 12 72 40 72 74 c 0
EndSplineSet
EndChar

StartChar: semicolon
Encoding: 59 59 56
Width: 292
VWidth: -75
Flags: HW
HStem: 404 124<182.298 279.702>
VStem: 169 124<417.298 514.702>
LayerCount: 2
Fore
SplineSet
118 132 m 1
 223 132 l 1
 105 -107 l 1
 40 -107 l 1
 118 132 l 1
169 466 m 0
 169 500 197 528 231 528 c 0
 265 528 293 500 293 466 c 0
 293 432 265 404 231 404 c 0
 197 404 169 432 169 466 c 0
EndSplineSet
EndChar

StartChar: dollar
Encoding: 36 36 57
Width: 573
VWidth: -75
Flags: HW
HStem: 2 91<196.182 257 320 369.533> 667 86<436 488.076> 776 20G<393.444 443>
VStem: 166.374 101.044<476.307 601.932> 433.985 103.632<153.965 282.602>
LayerCount: 2
Fore
SplineSet
320 97 m 1
 388 112 427 161 433 211 c 0
 433.65234375 216.435546875 433.985351562 221.575195312 433.985351562 226.4609375 c 0
 433.985351562 266.517578125 411.586914062 289.478515625 359 318 c 1
 320 97 l 1
374 662 m 1
 315 646 275 596 268 542 c 0
 267.6171875 538.84375 267.41796875 535.659179688 267.41796875 532.455078125 c 0
 267.41796875 502.158203125 285.260742188 470.03515625 335 442 c 1
 374 662 l 1
604 670 m 1
 523 601 l 1
 510 627 486 664 421 667 c 1
 377 421 l 1
 428 397 457 382 478 366 c 0
 517.459960938 334.911132812 537.6171875 291.310546875 537.6171875 241.82421875 c 0
 537.6171875 208.540039062 528.498046875 172.59375 510 136 c 0
 476 68 405 14 303 3 c 1
 295 -47 l 1
 249 -47 l 1
 257 1 l 2
 253 1 248 2 243 2 c 0
 147 7 80 65 64 109 c 1
 150 182 l 1
 156 145 198 96 267 93 c 0
 269 93 271 93 273 93 c 2
 317 340 l 2
 314 341 312 343 309 344 c 0
 256 369 216 391 191 427 c 0
 175.112304688 450.333984375 166.374023438 480.32421875 166.374023438 513.297851562 c 0
 166.374023438 546.739257812 175.362304688 583.25 195 619 c 0
 234 690 310 739 389 751 c 1
 397 796 l 1
 443 796 l 1
 436 753 l 2
 437 753 438 753 439 753 c 0
 535 749 583 704 604 670 c 1
EndSplineSet
EndChar

StartChar: exclam
Encoding: 33 33 58
Width: 304
VWidth: -75
Flags: HW
HStem: 12 124<115.199 198.801> 717 20G<222.483 322>
VStem: 94.0479 125.904<33.5239 114.476>
LayerCount: 2
Fore
SplineSet
95 74 m 0
 101 108 134 136 168 136 c 0
 198.362304688 136 219.952148438 113.671875 219.952148438 84.6806640625 c 0
 219.952148438 81.20703125 219.641601562 77.6376953125 219 74 c 0
 213 40 180 12 146 12 c 0
 115.637695312 12 94.0478515625 34.328125 94.0478515625 63.3193359375 c 0
 94.0478515625 66.79296875 94.3583984375 70.3623046875 95 74 c 0
226 737 m 1
 322 737 l 1
 236 248 l 1
 140 248 l 1
 226 737 l 1
EndSplineSet
EndChar

StartChar: question
Encoding: 63 63 59
Width: 576
VWidth: -75
Flags: HW
HStem: 12 124<247.199 330.801> 668.109 86.3291<297.14 462.213>
VStem: 226.048 125.904<33.5239 114.476> 497.411 107.442<491.424 631.248>
LayerCount: 2
Fore
SplineSet
227 74 m 0
 233 108 266 136 300 136 c 0
 330.362304688 136 351.952148438 113.671875 351.952148438 84.6806640625 c 0
 351.952148438 81.20703125 351.641601562 77.6376953125 351 74 c 0
 345 40 312 12 278 12 c 0
 247.637695312 12 226.047851562 34.328125 226.047851562 63.3193359375 c 0
 226.047851562 66.79296875 226.358398438 70.3623046875 227 74 c 0
386 754 m 0
 391.723632812 754.291992188 397.40234375 754.438476562 403.02734375 754.438476562 c 0
 514.608398438 754.438476562 604.853515625 697.041992188 604.853515625 588.512695312 c 0
 604.853515625 571.579101562 602.65625 553.400390625 598 534 c 0
 579 456 530 416 467 375 c 0
 422 346 387 316 375 265 c 0
 372 255 371 248 371 248 c 1
 270 248 l 1
 270 248 271 261 275 276 c 0
 289 334 318 372 384 414 c 0
 444 453 481 483 493 534 c 0
 495.956054688 546.134765625 497.411132812 557.80859375 497.411132812 568.861328125 c 0
 497.411132812 627.123046875 456.974609375 668.109375 382.717773438 668.109375 c 0
 380.508789062 668.109375 378.26953125 668.073242188 376 668 c 0
 315 666 267 632 216 570 c 1
 161 636 l 1
 219 705 292 749 386 754 c 0
EndSplineSet
EndChar

StartChar: period
Encoding: 46 46 60
Width: 244
VWidth: -75
Flags: HW
HStem: 12 124<83.2983 180.702>
VStem: 70 124<25.2983 122.702>
LayerCount: 2
Fore
SplineSet
70 74 m 0
 70 108 98 136 132 136 c 0
 166 136 194 108 194 74 c 0
 194 40 166 12 132 12 c 0
 98 12 70 40 70 74 c 0
EndSplineSet
EndChar

StartChar: percent
Encoding: 37 37 61
Width: 884
VWidth: -75
Flags: HW
HStem: -2 81<572.103 687.915> 12 21G<163 278.097> 263 81<594.429 712.343> 405 81<225.943 341.59> 671 80<251.214 365.366> 717 20G<659.903 775>
VStem: 120.199 87.249<506.623 625.875> 385.515 87.2197<529.771 651.612> 466.232 86.2529<99.8922 218.875> 731.515 86.2861<122.771 242.377>
LayerCount: 2
Fore
SplineSet
674 737 m 1
 775 737 l 1
 264 12 l 1
 163 12 l 1
 674 737 l 1
626 79 m 0
 675 79 721 120 730 171 c 0
 731.021484375 176.790039062 731.514648438 182.451171875 731.514648438 187.9375 c 0
 731.514648438 230.78125 701.4375 263 658 263 c 0
 609 263 563 222 554 171 c 0
 552.978515625 165.209960938 552.485351562 159.548828125 552.485351562 154.0625 c 0
 552.485351562 111.21875 582.5625 79 626 79 c 0
673 344 m 0
 759.23046875 344 817.80078125 283.939453125 817.80078125 202.45703125 c 0
 817.80078125 192.280273438 816.887695312 181.76953125 815 171 c 0
 798 73 709 -2 612 -2 c 0
 525.641601562 -2 466.232421875 58.2392578125 466.232421875 139.905273438 c 0
 466.232421875 149.96875 467.134765625 160.358398438 469 171 c 0
 486 268 576 344 673 344 c 0
280 486 m 0
 329 486 375 527 384 578 c 0
 385.021484375 583.790039062 385.514648438 589.463867188 385.514648438 594.973632812 c 0
 385.514648438 637.995117188 355.4375 671 312 671 c 0
 263 671 218 629 209 578 c 0
 207.954101562 572.073242188 207.448242188 566.28125 207.448242188 560.672851562 c 0
 207.448242188 518.024414062 236.694335938 486 280 486 c 0
326 751 m 0
 412.483398438 751 472.734375 690.586914062 472.734375 608.740234375 c 0
 472.734375 598.787109375 471.842773438 588.516601562 470 578 c 0
 453 480 362 405 265 405 c 0
 178.76953125 405 120.19921875 465.060546875 120.19921875 546.54296875 c 0
 120.19921875 556.719726562 121.112304688 567.23046875 123 578 c 0
 140 675 229 751 326 751 c 0
EndSplineSet
EndChar

StartChar: comma
Encoding: 44 44 62
Width: 241
VWidth: -75
Flags: HW
HStem: -107 239
VStem: 58 183
LayerCount: 2
Fore
SplineSet
136 132 m 1
 241 132 l 1
 123 -107 l 1
 58 -107 l 1
 136 132 l 1
EndSplineSet
EndChar

StartChar: germandbls
Encoding: 223 223 63
Width: 634
VWidth: -75
Flags: HW
HStem: 11.2979 83.4971<301 416.377> 347.878 84.0303<360.152 446.781> 368.355 47.3193<396.52 489.754> 668 89<347.514 484.723>
VStem: 492.699 96.8516<167.729 312.08> 514.646 97.7969<494.679 635.714>
LayerCount: 2
Fore
SplineSet
433 757 m 0
 529.364257812 757 612.442382812 704.6328125 612.442382812 591.607421875 c 0
 612.442382812 576.787109375 611.013671875 560.924804688 608 544 c 0
 595.865628925 475.943893664 555.620315209 426.257251365 504.150275168 397.43650088 c 1
 557.723088948 372.386326767 589.55078125 323.004574696 589.55078125 258.522460938 c 0
 589.55078125 246.2109375 588.390625 233.348632812 586 220 c 0
 562.303710938 88.24609375 454.151367188 11.2978515625 310.086914062 11.2978515625 c 0
 302.1640625 11.2978515625 294.131835938 11.53125 286 12 c 1
 301 95 l 2
 304.875976562 94.86328125 308.692382812 94.794921875 312.450195312 94.794921875 c 0
 418.262695312 94.794921875 477.446289062 148.538085938 490 220 c 0
 491.810546875 229.958007812 492.69921875 239.390625 492.69921875 248.278320312 c 0
 492.69921875 312.166015625 446.78125 347.877929688 367.32421875 347.877929688 c 0
 360.15234375 347.877929688 352.708007812 347.586914062 345 347 c 1
 355.588235294 402.588235294 l 1
 360 432 l 2
 362.09765625 431.938476562 364.168945312 431.908203125 366.215820312 431.908203125 c 0
 463.712890625 431.908203125 504.1640625 500.883789062 512 543 c 0
 513.787109375 552.830078125 514.645507812 562.188476562 514.645507812 571.034179688 c 0
 514.645507812 631.473632812 474.57421875 668 417 668 c 0
 364 668 301 630 283 528 c 2
 192 12 l 1
 90 12 l 1
 181 525 l 2
 212 698 339 757 433 757 c 0
EndSplineSet
EndChar

StartChar: yen
Encoding: 165 165 64
Width: 707
VWidth: -75
Flags: HW
HStem: 12 21G<296 400.488> 184 79<159 326 441 607> 338 79<186 317 519 635> 717 20G<143 276.747 668.291 805>
LayerCount: 2
Fore
SplineSet
145 184 m 1
 159 263 l 1
 340 263 l 1
 354 338 l 1
 173 338 l 1
 186 417 l 1
 317 417 l 1
 143 737 l 1
 267 737 l 1
 421 421 l 1
 685 737 l 1
 805 737 l 1
 519 417 l 1
 648 417 l 1
 635 338 l 1
 455 338 l 1
 441 263 l 1
 621 263 l 1
 607 184 l 1
 427 184 l 1
 397 12 l 1
 296 12 l 1
 326 184 l 1
 145 184 l 1
EndSplineSet
EndChar

StartChar: section
Encoding: 167 167 65
Width: 593
VWidth: -75
Flags: HW
HStem: -191.455 87.2168<164.538 351.511> 672.233 82.0078<327.961 498.873>
VStem: 122.311 96.2383<229.741 344.967> 172.624 101.906<518.687 623.908> 405.51 104.115<-56.2722 48.8724> 461.664 97.0254<223.788 338.303>
LayerCount: 2
Fore
SplineSet
324.358800986 396.521861072 m 0
 261.92767877 384.644170136 223.930844553 336.294614213 219 286 c 0
 218.702148438 283.6171875 218.548828125 281.211914062 218.548828125 278.7890625 c 0
 218.548828125 248.676757812 242.287109375 215.840820312 308 189 c 0
 325.010315919 182.14509657 340.731476803 176.063686161 355.114387826 170.526659992 c 1
 415.953477583 186.117250992 457.045639453 234.479212697 461 276 c 0
 461.439453125 280.029296875 461.6640625 283.875976562 461.6640625 287.561523438 c 0
 461.6640625 334.18359375 425.674804688 355.00390625 333 393 c 0
 330.112710701 394.176303048 327.231139124 395.349747234 324.358800986 396.521861072 c 0
246.853139674 431.505784625 m 1
 227.833570637 441.870281143 211.606806593 453.10354823 200 466 c 0
 181.876953125 486.13671875 172.624023438 513.1171875 172.624023438 542.984375 c 0
 172.624023438 572.4453125 181.626953125 604.715820312 200 636 c 0
 242.225585938 708.935546875 337.868164062 754.241210938 430.361328125 754.241210938 c 0
 434.248046875 754.241210938 438.12890625 754.161132812 442 754 c 0
 538.324611071 750.02785109 586.329198314 710.55527651 609.515924584 680.6280884 c 1
 528 618 l 1
 514 641 485 669 424 672 c 0
 420.752929688 672.15625 417.541015625 672.233398438 414.365234375 672.233398438 c 0
 336.387695312 672.233398438 280.765625 625.848632812 275 573 c 0
 274.686523438 570.178710938 274.530273438 567.447265625 274.530273438 564.799804688 c 0
 274.530273438 525.213867188 309.451171875 504.181640625 376 477 c 0
 443 450 479 430 503 412 c 0
 542.061523438 382.5625 558.689453125 342.548828125 558.689453125 301.575195312 c 0
 558.689453125 270.170898438 548.921875 238.203125 532 210 c 0
 514.090799142 180.628910592 477.193821341 150.744638024 437.484699126 135.419930788 c 1
 440.585410979 133.624782351 443.425079577 131.823901966 446 130 c 0
 487.322265625 101.629882812 509.625 65.271484375 509.625 20.6904296875 c 0
 509.625 -7.0126953125 501.012695312 -37.890625 483 -72 c 0
 446.935546875 -139.383789062 364.032226562 -191.455078125 239.420898438 -191.455078125 c 0
 232.733398438 -191.455078125 225.926757812 -191.305664062 219 -191 c 0
 123 -187 52 -136 35 -97 c 1
 123 -29 l 1
 134 -63 173 -101 242 -104 c 0
 245.94921875 -104.159179688 249.83203125 -104.23828125 253.649414062 -104.23828125 c 0
 345.543945312 -104.23828125 399.239257812 -58.806640625 405 -6 c 0
 405.33984375 -2.88671875 405.509765625 0.0986328125 405.509765625 2.966796875 c 0
 405.509765625 50.78125 358.33984375 66.3203125 264 105 c 0
 210 127 172 152 146 183 c 0
 130.314453125 202.48828125 122.310546875 229.658203125 122.310546875 258.818359375 c 0
 122.310546875 291.005859375 132.0625 325.618164062 152 355 c 0
 171.898131155 388.163551925 205.917423091 418.068374438 246.853139674 431.505784625 c 1
609.515924584 680.6280884 m 2
 609.678500462 680.41825115 609.839856233 680.208883174 610 680 c 2
 610 681 l 1
 609.515924584 680.6280884 l 2
EndSplineSet
EndChar

StartChar: numbersign
Encoding: 35 35 66
Width: 685
VWidth: -75
Flags: HW
HStem: 12 21G<151 246.814 341 436.814> 228 80<132 627> 462 80<211 704> 717 20G<391.186 487 581.186 677>
LayerCount: 2
Fore
SplineSet
588 737 m 1
 677 737 l 1
 610.565517241 542 l 1
 719 542 l 1
 704 462 l 1
 583.310344828 462 l 1
 530.844137931 308 l 1
 641 308 l 1
 627 228 l 1
 503.588965517 228 l 1
 430 12 l 1
 341 12 l 1
 414.588965517 228 l 1
 313.588965517 228 l 1
 240 12 l 1
 151 12 l 1
 224.588965517 228 l 1
 118 228 l 1
 132 308 l 1
 251.844137931 308 l 1
 304.310344828 462 l 1
 196 462 l 1
 211 542 l 1
 331.565517241 542 l 1
 398 737 l 1
 487 737 l 1
 420.565517241 542 l 1
 521.565517241 542 l 1
 588 737 l 1
340.844137931 308 m 1
 441.844137931 308 l 1
 494.310344828 462 l 1
 393.310344828 462 l 1
 340.844137931 308 l 1
EndSplineSet
EndChar

StartChar: parenleft
Encoding: 40 40 67
Width: 372
VWidth: -75
Flags: HW
HStem: 717 20G<301 402>
VStem: 77.6201 101<-55.6957 328.803>
LayerCount: 2
Fore
SplineSet
301 737 m 1
 402 737 l 1
 402 737 238 545 191 280 c 0
 182.18359375 229.591796875 178.620117188 181.791992188 178.620117188 137.452148438 c 0
 178.620117188 -49.546875 242 -175 242 -175 c 1
 141 -175 l 1
 141 -175 77.6201171875 -49.546875 77.6201171875 137.452148438 c 0
 77.6201171875 181.791992188 81.18359375 229.591796875 90 280 c 0
 137 545 301 737 301 737 c 1
EndSplineSet
EndChar

StartChar: parenright
Encoding: 41 41 68
Width: 372
VWidth: -75
Flags: HW
HStem: 717 20G<191 292>
VStem: 254.757 101<231.549 617.963>
LayerCount: 2
Fore
SplineSet
292 737 m 1
 292 737 355.756835938 612.088867188 355.756835938 424.711914062 c 0
 355.756835938 379.779296875 352.090820312 331.254882812 343 280 c 0
 297 17 132 -175 132 -175 c 1
 31 -175 l 1
 31 -175 196 17 242 280 c 0
 251.090820312 331.254882812 254.756835938 379.779296875 254.756835938 424.711914062 c 0
 254.756835938 612.088867188 191 737 191 737 c 1
 292 737 l 1
EndSplineSet
EndChar

StartChar: asterisk
Encoding: 42 42 69
Width: 553
VWidth: -75
Flags: HW
HStem: 717 20G<288.506 382>
LayerCount: 2
Fore
SplineSet
535 547 m 1
 360 496 l 1
 448 343 l 1
 370 293 l 1
 287 450 l 1
 150 296 l 1
 90 345 l 1
 231 496 l 1
 74 547 l 1
 114 628 l 1
 263 571 l 1
 292 737 l 1
 382 737 l 1
 353 572 l 1
 523 628 l 1
 535 547 l 1
EndSplineSet
EndChar

StartChar: hyphen
Encoding: 45 45 70
Width: 377
VWidth: -75
Flags: HW
HStem: 196 86<85 308>
VStem: 69 255
LayerCount: 2
Fore
SplineSet
69 196 m 1
 85 282 l 1
 324 282 l 1
 308 196 l 1
 69 196 l 1
EndSplineSet
EndChar

StartChar: slash
Encoding: 47 47 71
Width: 417
VWidth: -75
Flags: HW
HStem: 12 21G<10 122.752> 717 20G<425.221 537>
LayerCount: 2
Fore
SplineSet
437 737 m 1
 537 737 l 1
 111 12 l 1
 10 12 l 1
 437 737 l 1
EndSplineSet
EndChar

StartChar: zero
Encoding: 48 48 72
Width: 649
VWidth: -75
Flags: HW
HStem: 0 88<271.075 415.564> 670 87<367.12 508.992>
VStem: 114.287 98.5967<155.921 433.936> 568.438 97.4648<322.096 598.703>
LayerCount: 2
Fore
SplineSet
340 88 m 0
 442 88 526 194 559 379 c 0
 565.361328125 414.499023438 568.4375 447.681640625 568.4375 478.004882812 c 0
 568.4375 595.458007812 522.275390625 670 442 670 c 0
 340 670 254 552 223 379 c 0
 216.158203125 340.01953125 212.883789062 304.693359375 212.883789062 273.182617188 c 0
 212.883789062 152.715820312 260.734375 88 340 88 c 0
458 757 m 0
 583.908203125 757 665.90234375 666.427734375 665.90234375 495.514648438 c 0
 665.90234375 460.096679688 662.380859375 421.227539062 655 379 c 0
 611 131 495 0 324 0 c 0
 193.57421875 0 114.287109375 87.4736328125 114.287109375 256.34765625 c 0
 114.287109375 293.345703125 118.092773438 334.250976562 126 379 c 0
 169 623 292 757 458 757 c 0
EndSplineSet
EndChar

StartChar: one
Encoding: 49 49 73
Width: 364
VWidth: -75
Flags: HW
HStem: 12 21G<133 237.55> 528 21G<114.619 147.232> 737 20G<327.935 362.522>
VStem: 111 255
LayerCount: 2
Fore
SplineSet
236 597 m 1
 111 528 l 1
 130 633 l 1
 366 757 l 1
 354 688 l 1
 234 12 l 1
 133 12 l 1
 236 597 l 1
EndSplineSet
EndChar

StartChar: two
Encoding: 50 50 74
Width: 585
VWidth: -75
Flags: HW
HStem: 12 86<218 522> 668.097 86.2881<319.787 476.238>
VStem: 514.545 106.198<469.776 628.886>
LayerCount: 2
Fore
SplineSet
406 754 m 0
 411.0234375 754.256835938 416.005859375 754.384765625 420.940429688 754.384765625 c 0
 532.983398438 754.384765625 620.743164062 688.606445312 620.743164062 574.361328125 c 0
 620.743164062 556.415039062 618.577148438 537.271484375 614 517 c 0
 590 411 507 339 454 294 c 0
 398 246 240 116 219 99 c 2
 218 98 l 1
 537 98 l 1
 522 12 l 1
 70 12 l 1
 85 98 l 1
 85 98 325 290 402 361 c 0
 450 406 496 453 510 518 c 0
 513.041015625 531.763671875 514.544921875 545.040039062 514.544921875 557.62109375 c 0
 514.544921875 621.955078125 475.219726562 668.096679688 400.953125 668.096679688 c 0
 398.993164062 668.096679688 397.008789062 668.064453125 395 668 c 0
 334 666 288 632 237 570 c 1
 180 636 l 1
 238 705 312 749 406 754 c 0
EndSplineSet
EndChar

StartChar: three
Encoding: 51 51 75
Width: 594
VWidth: -75
Flags: HW
HStem: -4.11719 85.7803<181.119 363.053> 354 72<273.096 389.714> 672.205 82.2891<289.695 444.907>
VStem: 444.474 102.812<155.653 302.197> 480.08 101.92<503.265 636.26>
LayerCount: 2
Fore
SplineSet
437.095703125 392 m 1
 496.095703125 370 547.286132812 323.489257812 547.286132812 245.607421875 c 0
 547.286132812 235.642578125 546.5703125 225.1171875 545.095703125 214 c 0
 527.448242188 93.40625 439.095703125 -4.1171875 256.515625 -4.1171875 c 0
 253.071289062 -4.1171875 249.59765625 -4.078125 246.095703125 -4 c 0
 149.095703125 -2 86.095703125 41 52.095703125 97 c 1
 133.095703125 165 l 1
 153.095703125 118 188.095703125 86 261.095703125 82 c 0
 265.102539062 81.7744140625 269.09765625 81.6630859375 273.07421875 81.6630859375 c 0
 357.42578125 81.6630859375 431.635742188 131.872070312 443.095703125 214 c 0
 444.022460938 220.741210938 444.473632812 227.283203125 444.473632812 233.616210938 c 0
 444.473632812 302.443359375 391.186523438 346.58984375 316.095703125 353 c 0
 302.095703125 354 274.095703125 354 260.095703125 354 c 1
 273.095703125 426 l 1
 285.095703125 426 317.095703125 426 329.095703125 427 c 0
 404.095703125 433 461.095703125 484 477.095703125 552 c 0
 479.112304688 560.6953125 480.080078125 569.168945312 480.080078125 577.330078125 c 0
 480.080078125 631.701171875 437.10546875 672.205078125 374.833007812 672.205078125 c 0
 372.286132812 672.205078125 369.706054688 672.137695312 367.095703125 672 c 0
 316.095703125 669 271.095703125 646 236.095703125 602 c 1
 183.095703125 664 l 1
 226.095703125 713 299.095703125 749 378.095703125 754 c 0
 383.8515625 754.331054688 389.518554688 754.494140625 395.091796875 754.494140625 c 0
 507.618164062 754.494140625 582 687.95703125 582 594.625 c 0
 582 580.950195312 580.403320312 566.700195312 577.095703125 552 c 0
 560.095703125 481 502.095703125 414 437.095703125 392 c 1
EndSplineSet
EndChar

StartChar: four
Encoding: 52 52 76
Width: 644
VWidth: -75
Flags: HW
HStem: 12 21G<363 468.652> 127 81<196 384 500 599> 737 20G<578.841 593.466>
LayerCount: 2
Fore
SplineSet
446 485 m 1
 196 210 l 1
 196 208 l 1
 398 208 l 1
 447 485 l 1
 446 485 l 1
613 208 m 1
 599 127 l 1
 486 127 l 1
 465 12 l 1
 363 12 l 1
 384 127 l 1
 25 127 l 1
 597 757 l 1
 500 208 l 1
 613 208 l 1
EndSplineSet
EndChar

StartChar: five
Encoding: 53 53 77
Width: 568
VWidth: -75
Flags: HW
HStem: -7.16016 90.0635<159.281 324.677> 384 83.8926<242.8 375.131> 652 85<337 588>
VStem: 420.705 101.329<174.135 336.866>
LayerCount: 2
Fore
SplineSet
279 465 m 0
 293.4375 466.948242188 307.396484375 467.892578125 320.830078125 467.892578125 c 0
 443.228515625 467.892578125 522.034179688 389.4921875 522.034179688 277.888671875 c 0
 522.034179688 263.44921875 520.71484375 248.453125 518 233 c 0
 495.491210938 103.822265625 397 -7.16015625 219.505859375 -7.16015625 c 0
 215.705078125 -7.16015625 211.869140625 -7.1064453125 208 -7 c 0
 142 -7 78 21 42 74 c 1
 124 143 l 1
 144 108 182 85 231 83 c 0
 233.116210938 82.935546875 235.221679688 82.9033203125 237.31640625 82.9033203125 c 0
 332.168945312 82.9033203125 403.32421875 148.857421875 418 233 c 0
 419.797851562 243.401367188 420.705078125 253.62109375 420.705078125 263.534179688 c 0
 420.705078125 330.823242188 378.90234375 384 290 384 c 0
 246 384 209 370 172 338 c 1
 113 398 l 1
 278 737 l 1
 603 737 l 1
 588 652 l 1
 337 652 l 1
 242 457 l 1
 242 456 l 1
 253 461 265 463 279 465 c 0
EndSplineSet
EndChar

StartChar: six
Encoding: 54 54 78
Width: 582
VWidth: -75
Flags: HW
HStem: -4 88<198.755 353.89> 391 74.4326<288.711 400.058> 717 20G<353.5 504>
VStem: 55.0586 95.4385<133.179 293.447> 448.538 96.8037<181.025 342.244>
LayerCount: 2
Fore
SplineSet
258 -4 m 0
 137.944335938 -4 55.05859375 79.0400390625 55.05859375 193.075195312 c 0
 55.05859375 207.26953125 56.3427734375 221.9453125 59 237 c 0
 67 282 87 322 113 359 c 0
 168 440 311 626 396 737 c 1
 504 737 l 1
 287 456 l 1
 287 454 l 1
 307.05078125 461.518554688 330.111328125 465.432617188 354.026367188 465.432617188 c 0
 443.684570312 465.432617188 545.341796875 410.426757812 545.341796875 284.178710938 c 0
 545.341796875 269.432617188 543.955078125 253.715820312 541 237 c 0
 517 100 412 -4 258 -4 c 0
327 391 m 0
 246 391 168 322 153 237 c 0
 151.311523438 227.43359375 150.497070312 218.08203125 150.497070312 209.018554688 c 0
 150.497070312 137.5546875 201.116210938 84 273 84 c 0
 354 84 431 152 446 237 c 0
 447.711914062 246.700195312 448.538085938 256.192382812 448.538085938 265.397460938 c 0
 448.538085938 336.850585938 398.755859375 391 327 391 c 0
EndSplineSet
EndChar

StartChar: seven
Encoding: 55 55 79
Width: 531
VWidth: -75
Flags: HW
HStem: 12 21G<26 152.812> 652 85<94 449>
LayerCount: 2
Fore
SplineSet
79 652 m 1
 94 737 l 1
 565 737 l 1
 550 652 l 1
 140 12 l 1
 26 12 l 1
 449 651 l 1
 449 652 l 1
 79 652 l 1
EndSplineSet
EndChar

StartChar: eight
Encoding: 56 56 80
Width: 606
VWidth: -75
Flags: HW
HStem: -4 85<203.103 360.798> 373 74<278.036 405.18> 671 82<309.797 444.683>
VStem: 57.291 98.499<128.287 283.924> 154.533 93.0205<477.566 608.216> 452.24 97.707<172.101 325.898> 475.784 94.2148<508.299 641.247>
LayerCount: 2
Fore
SplineSet
460 417 m 1
 460 416 l 1
 514.912109375 388.543945312 549.947265625 327.224609375 549.947265625 260.46484375 c 0
 549.947265625 249.416015625 548.98828125 238.217773438 547 227 c 0
 524 96 412 -4 263 -4 c 0
 139.0859375 -4 57.291015625 76.2666015625 57.291015625 185.790039062 c 0
 57.291015625 199.124023438 58.4814453125 212.895507812 61 227 c 0
 76 311 137 384 214 416 c 1
 214 417 l 1
 179.233398438 440.743164062 154.533203125 482.461914062 154.533203125 531.182617188 c 0
 154.533203125 539.916992188 155.327148438 548.877929688 157 558 c 0
 176 667 271 753 397 753 c 0
 500.672851562 753 569.999023438 685.10546875 569.999023438 592.149414062 c 0
 569.999023438 581.096679688 569.091796875 569.676757812 567 558 c 0
 555 491 514 445 460 417 c 1
382 671 m 0
 320 671 260 620 249 558 c 0
 248.025390625 552.053710938 247.553710938 546.211914062 247.553710938 540.51171875 c 0
 247.553710938 487.727539062 287.946289062 447 343 447 c 0
 404 447 462 497 474 558 c 0
 475.203125 564.778320312 475.784179688 571.42578125 475.784179688 577.888671875 c 0
 475.784179688 630.541992188 437.221679688 671 382 671 c 0
278 81 m 0
 358 81 436 147 450 227 c 0
 451.509765625 235.737304688 452.240234375 244.288085938 452.240234375 252.590820312 c 0
 452.240234375 321.265625 402.262695312 373 330 373 c 0
 249 373 172 308 158 227 c 0
 156.509765625 218.484375 155.790039062 210.127929688 155.790039062 201.993164062 c 0
 155.790039062 133.697265625 206.515625 81 278 81 c 0
EndSplineSet
EndChar

StartChar: nine
Encoding: 57 57 81
Width: 582
VWidth: -75
Flags: HW
HStem: 12 21G<142 292.5> 283.567 75.4326<244.774 357.289> 665 88<291.739 447.245>
VStem: 100.658 96.8037<409.408 567.975> 495.503 95.4385<455.692 615.821>
LayerCount: 2
Fore
SplineSet
388 753 m 0
 508.055664062 753 590.94140625 669.959960938 590.94140625 555.924804688 c 0
 590.94140625 541.73046875 589.657226562 527.0546875 587 512 c 0
 579 467 559 427 533 390 c 0
 478 309 335 123 250 12 c 1
 142 12 l 1
 359 294 l 1
 359 295 l 1
 338.94921875 287.481445312 315.888671875 283.567382812 291.973632812 283.567382812 c 0
 202.315429688 283.567382812 100.658203125 338.573242188 100.658203125 464.821289062 c 0
 100.658203125 479.567382812 102.044921875 495.284179688 105 512 c 0
 129 649 247 753 388 753 c 0
319 359 m 0
 400 359 478 427 493 512 c 0
 494.688476562 521.56640625 495.502929688 530.91796875 495.502929688 539.981445312 c 0
 495.502929688 611.4453125 444.883789062 665 373 665 c 0
 292 665 215 597 200 512 c 0
 198.288085938 502.299804688 197.461914062 492.8203125 197.461914062 483.638671875 c 0
 197.461914062 412.364257812 247.244140625 359 319 359 c 0
EndSplineSet
EndChar

StartChar: less
Encoding: 60 60 82
Width: 711
VWidth: -75
Flags: HW
HStem: -4 21G<548.502 585.551>
LayerCount: 2
Fore
SplineSet
601 103 m 1
 582 -4 l 1
 41 319 l 1
 696 639 l 1
 676 529 l 1
 238 317 l 1
 601 103 l 1
EndSplineSet
EndChar

StartChar: equal
Encoding: 61 61 83
Width: 692
VWidth: -75
Flags: HW
HStem: 182 86<134 627> 368 85<167 660>
LayerCount: 2
Fore
SplineSet
119 182 m 1
 134 268 l 1
 642 268 l 1
 627 182 l 1
 119 182 l 1
152 368 m 1
 167 453 l 1
 675 453 l 1
 660 368 l 1
 152 368 l 1
EndSplineSet
EndChar

StartChar: greater
Encoding: 62 62 84
Width: 713
VWidth: -75
Flags: HW
LayerCount: 2
Fore
SplineSet
85 107 m 1
 524 321 l 1
 160 533 l 1
 180 643 l 1
 721 323 l 1
 66 0 l 1
 85 107 l 1
EndSplineSet
EndChar

StartChar: bracketleft
Encoding: 91 91 85
Width: 393
VWidth: -75
Flags: HW
HStem: -175 86<172 288> 652 85<302 433>
LayerCount: 2
Fore
SplineSet
433 652 m 1
 302 652 l 1
 172 -89 l 1
 303 -89 l 1
 288 -175 l 1
 56 -175 l 1
 216 737 l 1
 448 737 l 1
 433 652 l 1
EndSplineSet
EndChar

StartChar: bracketright
Encoding: 93 93 86
Width: 392
VWidth: -75
Flags: HW
HStem: -175 86<48 179> 652 85<193 309>
LayerCount: 2
Fore
SplineSet
178 652 m 1
 193 737 l 1
 426 737 l 1
 266 -175 l 1
 33 -175 l 1
 48 -89 l 1
 179 -89 l 1
 309 652 l 1
 178 652 l 1
EndSplineSet
EndChar

StartChar: asciicircum
Encoding: 94 94 87
Width: 667
VWidth: -75
Flags: HW
HStem: 737 20G<449.458 473.417>
LayerCount: 2
Fore
SplineSet
194 277 m 1
 92 277 l 1
 465 757 l 1
 667 277 l 1
 558 277 l 1
 434 595 l 1
 194 277 l 1
EndSplineSet
EndChar

StartChar: braceleft
Encoding: 123 123 88
Width: 499
VWidth: -75
Flags: HW
HStem: -175 85.5557<268.835 373> 652.444 84.5557<390.205 517.983>
VStem: 158.879 105.296<-84.5856 69.3892> 201.506 102.22<50.6796 226.523>
LayerCount: 2
Fore
SplineSet
276 -175 m 2
 198.376953125 -175 158.87890625 -142.321289062 158.87890625 -81.767578125 c 0
 158.87890625 -73.6728515625 159.584960938 -65.080078125 161 -56 c 0
 170 6 189 103 200 165 c 0
 201.025390625 170.924804688 201.505859375 176.395507812 201.505859375 181.446289062 c 0
 201.505859375 220.71875 172.467773438 234.569335938 145 239 c 0
 137 240 131 240 131 240 c 1
 138 281 l 1
 138 282 l 1
 145 322 l 1
 145 322 152 323 160 324 c 0
 193 329 232 346 241 398 c 0
 252 460 266 556 279 618 c 0
 295 695 348 737 436 737 c 2
 533 737 l 1
 518 652 l 1
 518 652 494.444335938 652.444335938 470.444335938 652.444335938 c 0
 458.444335938 652.444335938 446.333007812 652.333007812 437 652 c 0
 401 651 385 632 379 606 c 0
 362 524 356 472 343 400 c 0
 330 325 281 290 228 282 c 1
 228 281 l 1
 271.75 274.137695312 303.725585938 246.668945312 303.725585938 191.651367188 c 0
 303.725585938 182.53515625 302.84765625 172.661132812 301 162 c 0
 288 90 276 38 265 -44 c 0
 264.459960938 -47.5107421875 264.174804688 -50.8759765625 264.174804688 -54.0732421875 c 0
 264.174804688 -74.5517578125 275.861328125 -88.134765625 307 -89 c 0
 316.333007812 -89.3330078125 328.444335938 -89.4443359375 340.444335938 -89.4443359375 c 0
 364.444335938 -89.4443359375 388 -89 388 -89 c 1
 373 -175 l 1
 276 -175 l 2
EndSplineSet
EndChar

StartChar: braceright
Encoding: 125 125 89
Width: 499
VWidth: -75
Flags: HW
HStem: -175 85.5557<74.0172 201.703> 652.444 84.5557<219 323.147>
VStem: 288.274 102.255<336.142 511.559> 327.825 104.335<488.36 648.133>
LayerCount: 2
Fore
SplineSet
156 -175 m 2
 59 -175 l 1
 74 -89 l 1
 74 -89 97.5556640625 -89.4443359375 121.555664062 -89.4443359375 c 0
 133.555664062 -89.4443359375 145.666992188 -89.3330078125 155 -89 c 0
 191 -88 207 -70 213 -44 c 0
 230 38 236 90 249 162 c 0
 262 237 311 273 364 281 c 1
 364 282 l 1
 320.25 288.862304688 288.274414062 315.594726562 288.274414062 370.403320312 c 0
 288.274414062 379.485351562 289.15234375 389.338867188 291 400 c 0
 304 472 316 524 327 606 c 0
 327.540039062 609.510742188 327.825195312 612.89453125 327.825195312 616.123046875 c 0
 327.825195312 636.803710938 316.138671875 651.134765625 285 652 c 0
 275.666992188 652.333007812 263.555664062 652.444335938 251.555664062 652.444335938 c 0
 227.555664062 652.444335938 204 652 204 652 c 1
 219 737 l 1
 316 737 l 2
 393.440429688 737 432.16015625 704.475585938 432.16015625 644.196289062 c 0
 432.16015625 635.975585938 431.440429688 627.240234375 430 618 c 0
 421 556 403 460 392 398 c 0
 390.998046875 392.213867188 390.529296875 386.861328125 390.529296875 381.909179688 c 0
 390.529296875 342.365234375 420.44921875 328.443359375 448 324 c 0
 456 323 461 322 461 322 c 1
 454 282 l 1
 454 281 l 1
 447 240 l 1
 447 240 441 240 433 239 c 0
 400 234 360 217 351 165 c 0
 340 103 325 6 312 -56 c 0
 296 -133 244 -175 156 -175 c 2
EndSplineSet
EndChar

StartChar: bar
Encoding: 124 124 90
Width: 285
VWidth: -75
Flags: HW
HStem: 776 20G<225.464 330>
VStem: 43 287
LayerCount: 2
Fore
SplineSet
229 796 m 1
 330 796 l 1
 144 -256 l 1
 43 -256 l 1
 229 796 l 1
EndSplineSet
EndChar

StartChar: asciitilde
Encoding: 126 126 91
Width: 694
VWidth: -75
Flags: HW
HStem: 159.706 85.3509<382.493 517.623> 232.793 85.4977<181.256 310.441>
LayerCount: 2
Fore
SplineSet
554 301 m 1
 604 242 l 1
 574 214 516 164 441 160 c 0
 437.498923793 159.801825875 434.093848214 159.706197875 430.779152286 159.706197875 c 0
 339.142241277 159.706197875 316.580849 232.79293407 244.329029138 232.79293407 c 0
 240.067046497 232.79293407 235.632162457 232.538623541 231 232 c 0
 201 228 165 202 139 172 c 1
 90 230 l 1
 121 264 182 314 253 318 c 0
 256.398166467 318.196048065 259.706651632 318.290670848 262.930688186 318.290670848 c 0
 352.623393933 318.290670848 376.956882201 245.057126653 448.59814406 245.057126653 c 0
 453.19414665 245.057126653 457.984849524 245.358527265 463 246 c 0
 496 250 530 275 554 301 c 1
EndSplineSet
EndChar

StartChar: sterling
Encoding: 163 163 92
Width: 615
VWidth: -75
Flags: HW
HStem: 12 86<201 546> 340 86<143 216 333 515> 666 88<430.706 579.836>
LayerCount: 2
Fore
SplineSet
687 680 m 1
 607 612 l 1
 588 642 556 666 512 666 c 0
 446 666 374 625 348 513 c 0
 345 499 340 466 333 426 c 1
 531 426 l 1
 515 340 l 1
 317 340 l 1
 310 303 304 265 298 232 c 0
 285 161 238 120 201 98 c 1
 561 98 l 1
 546 12 l 1
 70 12 l 1
 85 98 l 1
 85 98 177 131 199 245 c 0
 201 259 208 296 216 340 c 1
 127 340 l 1
 143 426 l 1
 233 426 l 1
 241 470 247 508 249 520 c 0
 273 649 377 754 533 754 c 0
 603 754 657 723 687 680 c 1
EndSplineSet
EndChar

StartChar: paragraph
Encoding: 182 182 93
Width: 653
VWidth: -75
Flags: HW
HStem: 660 77.4443<486 588>
LayerCount: 2
Fore
SplineSet
686 737 m 1
 526 -175 l 1
 441 -175 l 1
 588 660 l 1
 486 660 l 1
 339 -175 l 1
 254 -175 l 1
 342 324 l 1
 337 324 331 324 326 324 c 0
 208.499023438 324 131.41015625 390.560546875 131.41015625 491.939453125 c 0
 131.41015625 504.44921875 132.583007812 517.489257812 135 531 c 0
 156 652 270 735 398 737 c 0
 414.333007812 737.333007812 451.77734375 737.444335938 494.444335938 737.444335938 c 0
 579.77734375 737.444335938 686 737 686 737 c 1
EndSplineSet
EndChar

StartChar: plus
Encoding: 43 43 94
Width: 525
VWidth: -75
Flags: HW
HStem: 195 85<88 508>
LayerCount: 2
Fore
SplineSet
293 454 m 1
 379 454 l 1
 348.459584296 280 l 1
 522 280 l 1
 508 195 l 1
 333.540415704 195 l 1
 303 21 l 1
 217 21 l 1
 247.540415704 195 l 1
 74 195 l 1
 88 280 l 1
 262.459584296 280 l 1
 293 454 l 1
EndSplineSet
EndChar

StartChar: backslash
Encoding: 92 92 95
Width: 445
VWidth: -75
Flags: HW
HStem: 12 21G<308.31 414> 717 20G<143 248.69>
VStem: 143 271
LayerCount: 2
Fore
SplineSet
244 737 m 1
 414 12 l 1
 313 12 l 1
 143 737 l 1
 244 737 l 1
EndSplineSet
EndChar

StartChar: cent
Encoding: 162 162 96
Width: 554
VWidth: -75
Flags: HW
HStem: 0 88<217.661 267 329 394.574> 458 87<278.613 348 409 451.8>
VStem: 58.0176 97.5703<149.892 331.625>
LayerCount: 2
Fore
SplineSet
282 88 m 1
 348 458 l 1
 257 447 176 367 159 272 c 0
 156.696289062 258.815429688 155.587890625 246.15625 155.587890625 234.081054688 c 0
 155.587890625 151.823242188 207.0078125 96.7197265625 282 88 c 1
373 602 m 1
 419 602 l 1
 409 544 l 1
 469 536 536 501 568 460 c 1
 491 397 l 1
 466 431 434 451 394 457 c 1
 329 89 l 1
 372 96 416 118 450 152 c 1
 504 87 l 1
 449 38 380 7 313 0 c 1
 305 -46 l 1
 259 -46 l 1
 267 0 l 1
 144.705078125 7.91796875 58.017578125 88.6005859375 58.017578125 216.848632812 c 0
 58.017578125 234.366210938 59.634765625 252.771484375 63 272 c 0
 90 423 220 535 363 545 c 1
 373 602 l 1
EndSplineSet
EndChar

StartChar: currency
Encoding: 164 164 97
Width: 630
VWidth: -75
Flags: HW
HStem: 39 84<244.979 395.435> 415 84<288.565 439.021> 518 20G<162.667 202.579 568.579 608.667>
VStem: 109.498 91.1543<167.663 325.984> 483.348 92.1543<211.754 370.716>
LayerCount: 2
Fore
SplineSet
316 123 m 0
 393 123 467 188 481 269 c 0
 482.583007812 278.159179688 483.34765625 287.11328125 483.34765625 295.791992188 c 0
 483.34765625 363.868164062 436.293945312 415 368 415 c 0
 291 415 217 350 203 269 c 0
 201.416992188 259.840820312 200.65234375 250.88671875 200.65234375 242.208007812 c 0
 200.65234375 174.131835938 247.706054688 123 316 123 c 0
572 269 m 0
 564 222 542 178 513 142 c 1
 575 66 l 1
 498 0 l 1
 435 76 l 1
 395 52 348 39 301 39 c 0
 254 39 213 53 181 76 c 1
 92 0 l 1
 37 66 l 1
 128 142 l 1
 116.015625 167.37890625 109.498046875 196.732421875 109.498046875 228.311523438 c 0
 109.498046875 241.52734375 110.639648438 255.1328125 113 269 c 0
 121 316 143 360 172 396 c 1
 109 472 l 1
 186 538 l 1
 249 462 l 1
 289 485 336 499 383 499 c 0
 430 499 471 485 503 462 c 1
 592 538 l 1
 647 472 l 1
 557 396 l 1
 568.984375 370.62109375 575.501953125 341.267578125 575.501953125 309.688476562 c 0
 575.501953125 296.47265625 574.360351562 282.8671875 572 269 c 0
EndSplineSet
EndChar

StartChar: brokenbar
Encoding: 166 166 98
Width: 285
VWidth: -75
Flags: HW
HStem: 776 20G<224.449 329>
VStem: 42 287
LayerCount: 2
Fore
SplineSet
42 -256 m 1
 121 189 l 1
 222 189 l 1
 143 -256 l 1
 42 -256 l 1
149 351 m 1
 228 796 l 1
 329 796 l 1
 250 351 l 1
 149 351 l 1
EndSplineSet
EndChar

StartChar: guillemotleft
Encoding: 171 171 99
Width: 539
VWidth: -75
Flags: HW
HStem: 95 361
LayerCount: 2
Fore
SplineSet
222 456 m 1
 323 456 l 1
 184 275 l 1
 259 95 l 1
 158 95 l 1
 87 275 l 1
 222 456 l 1
419 456 m 1
 520 456 l 1
 382 275 l 1
 456 95 l 1
 355 95 l 1
 285 275 l 1
 419 456 l 1
EndSplineSet
EndChar

StartChar: guillemotright
Encoding: 187 187 100
Width: 539
VWidth: -75
Flags: HW
HStem: 95 361
LayerCount: 2
Fore
SplineSet
428 456 m 1
 498 275 l 1
 364 95 l 1
 263 95 l 1
 401 275 l 1
 327 456 l 1
 428 456 l 1
230 456 m 1
 301 275 l 1
 166 95 l 1
 65 95 l 1
 204 275 l 1
 129 456 l 1
 230 456 l 1
EndSplineSet
EndChar

StartChar: plusminus
Encoding: 177 177 101
Width: 571
VWidth: -75
Flags: HW
HStem: 12 86<79 498> 356 85<139 298 399 558>
LayerCount: 2
Fore
SplineSet
64 12 m 1
 79 98 l 1
 513 98 l 1
 498 12 l 1
 64 12 l 1
344 615 m 1
 430 615 l 1
 399 441 l 1
 573 441 l 1
 558 356 l 1
 384 356 l 1
 354 182 l 1
 268 182 l 1
 298 356 l 1
 124 356 l 1
 139 441 l 1
 313 441 l 1
 344 615 l 1
EndSplineSet
EndChar

StartChar: multiply
Encoding: 215 215 102
Width: 504
VWidth: -75
Flags: HW
LayerCount: 2
Fore
SplineSet
432 501 m 1
 483 441 l 1
 338 318 l 1
 439 195 l 1
 368 134 l 1
 266 257 l 1
 123 134 l 1
 72 195 l 1
 217 318 l 1
 116 441 l 1
 187 501 l 1
 288 378 l 1
 432 501 l 1
EndSplineSet
EndChar

StartChar: divide
Encoding: 247 247 103
Width: 571
VWidth: -75
Flags: HW
HStem: 91 100<245.177 320.823> 275 86<105 523> 445 100<307.177 382.823>
VStem: 232.167 101.666<104.001 177.999> 294.167 101.666<458.001 531.999>
CounterMasks: 1 e0
LayerCount: 2
Fore
SplineSet
233 141 m 0
 238 169 264 191 292 191 c 0
 316.856445312 191 333.833007812 173.662109375 333.833007812 150.1796875 c 0
 333.833007812 147.2109375 333.561523438 144.143554688 333 141 c 0
 328 113 302 91 274 91 c 0
 249.143554688 91 232.166992188 108.337890625 232.166992188 131.8203125 c 0
 232.166992188 134.7890625 232.438476562 137.856445312 233 141 c 0
295 495 m 0
 300 523 326 545 354 545 c 0
 378.856445312 545 395.833007812 527.662109375 395.833007812 504.1796875 c 0
 395.833007812 501.2109375 395.561523438 498.143554688 395 495 c 0
 390 467 364 445 336 445 c 0
 311.143554688 445 294.166992188 462.337890625 294.166992188 485.8203125 c 0
 294.166992188 488.7890625 294.438476562 491.856445312 295 495 c 0
89 275 m 1
 105 361 l 1
 539 361 l 1
 523 275 l 1
 89 275 l 1
EndSplineSet
EndChar

StartChar: underscore
Encoding: 95 95 104
Width: 659
VWidth: -75
Flags: HW
HStem: -175 86<50 609>
LayerCount: 2
Fore
SplineSet
50 -175 m 1
 50 -89 l 1
 609 -89 l 1
 609 -175 l 1
 50 -175 l 1
EndSplineSet
EndChar

StartChar: emdash
Encoding: 8212 8212 105
Width: 690
VWidth: -75
Flags: HW
HStem: 196 86<0 690>
LayerCount: 2
Fore
SplineSet
0 196 m 1
 0 282 l 1
 690 282 l 1
 690 196 l 1
 0 196 l 1
EndSplineSet
EndChar

StartChar: dagger
Encoding: 8224 8224 106
Width: 633
VWidth: -75
Flags: HW
HStem: 462 86<164 346 463 645> 717 20G<390.508 496>
LayerCount: 2
Fore
SplineSet
394 737 m 1
 496 737 l 1
 463 548 l 1
 660 548 l 1
 645 462 l 1
 448 462 l 1
 336 -175 l 1
 234 -175 l 1
 346 462 l 1
 149 462 l 1
 164 548 l 1
 361 548 l 1
 394 737 l 1
EndSplineSet
EndChar

StartChar: daggerdbl
Encoding: 8225 8225 107
Width: 633
VWidth: -75
Flags: HW
HStem: 35 85<86 268 385 567> 462 86<161 343 460 642> 717 20G<387.508 493>
LayerCount: 2
Fore
SplineSet
391 737 m 1
 493 737 l 1
 460 548 l 1
 657 548 l 1
 642 462 l 1
 445 462 l 1
 385 120 l 1
 582 120 l 1
 567 35 l 1
 370 35 l 1
 333 -175 l 1
 231 -175 l 1
 268 35 l 1
 71 35 l 1
 86 120 l 1
 283 120 l 1
 343 462 l 1
 146 462 l 1
 161 548 l 1
 358 548 l 1
 391 737 l 1
EndSplineSet
EndChar

StartChar: bullet
Encoding: 8226 8226 108
Width: 412
VWidth: -75
Flags: HW
HStem: 138 275<182.841 296.912>
VStem: 99.9766 279.078<220.647 331.444>
LayerCount: 2
Fore
SplineSet
102 276 m 0
 115 352 188 413 264 413 c 0
 331.905273438 413 379.0546875 364.301757812 379.0546875 299.716796875 c 0
 379.0546875 292.018554688 378.384765625 284.094726562 377 276 c 0
 364 200 292 138 216 138 c 0
 147.973632812 138 99.9765625 187.672851562 99.9765625 252.596679688 c 0
 99.9765625 260.20703125 100.635742188 268.026367188 102 276 c 0
EndSplineSet
EndChar

StartChar: quotedblleft
Encoding: 8220 8220 109
Width: 369
VWidth: -75
Flags: HW
HStem: 518 239
VStem: 63 319
LayerCount: 2
Fore
SplineSet
168 518 m 1
 63 518 l 1
 181 757 l 1
 246 757 l 1
 168 518 l 1
304 518 m 1
 199 518 l 1
 317 757 l 1
 382 757 l 1
 304 518 l 1
EndSplineSet
EndChar

StartChar: quotedblright
Encoding: 8221 8221 110
Width: 369
VWidth: -75
Flags: HW
HStem: 518 239
VStem: 69 319
LayerCount: 2
Fore
SplineSet
283 757 m 1
 388 757 l 1
 270 518 l 1
 205 518 l 1
 283 757 l 1
147 757 m 1
 252 757 l 1
 134 518 l 1
 69 518 l 1
 147 757 l 1
EndSplineSet
EndChar

StartChar: endash
Encoding: 8211 8211 111
Width: 459
VWidth: -75
Flags: HW
HStem: 196 86<0 459>
LayerCount: 2
Fore
SplineSet
0 196 m 1
 -1 282 l 1
 459 282 l 1
 460 196 l 1
 0 196 l 1
EndSplineSet
EndChar

StartChar: quoteleft
Encoding: 8216 8216 112
Width: 233
VWidth: -75
Flags: HW
HStem: 518 239
VStem: 53 183
LayerCount: 2
Fore
SplineSet
158 518 m 1
 53 518 l 1
 171 757 l 1
 236 757 l 1
 158 518 l 1
EndSplineSet
EndChar

StartChar: quotesingle
Encoding: 39 39 113
Width: 241
VWidth: -75
Flags: HW
HStem: 518 239
VStem: 58 183
LayerCount: 2
Fore
SplineSet
136 757 m 1
 241 757 l 1
 123 518 l 1
 58 518 l 1
 136 757 l 1
EndSplineSet
EndChar

StartChar: quotedbl
Encoding: 34 34 114
Width: 377
VWidth: -75
Flags: HW
HStem: 518 239
VStem: 58 319
LayerCount: 2
Fore
SplineSet
272 757 m 1
 377 757 l 1
 259 518 l 1
 194 518 l 1
 272 757 l 1
136 757 m 1
 241 757 l 1
 123 518 l 1
 58 518 l 1
 136 757 l 1
EndSplineSet
EndChar

StartChar: quoteright
Encoding: 8217 8217 115
Width: 233
VWidth: -75
Flags: HW
HStem: 518 239
VStem: 53 183
LayerCount: 2
Fore
SplineSet
131 757 m 1
 236 757 l 1
 118 518 l 1
 53 518 l 1
 131 757 l 1
EndSplineSet
EndChar

StartChar: guilsinglleft
Encoding: 8249 8249 116
Width: 351
VWidth: -75
Flags: HW
HStem: 95 361
VStem: 96 236
LayerCount: 2
Fore
SplineSet
230 456 m 1
 332 456 l 1
 193 275 l 1
 268 95 l 1
 166 95 l 1
 96 275 l 1
 230 456 l 1
EndSplineSet
EndChar

StartChar: guilsinglright
Encoding: 8250 8250 117
Width: 341
VWidth: -75
Flags: HW
HStem: 95 361
VStem: 79 236
LayerCount: 2
Fore
SplineSet
244 456 m 1
 315 275 l 1
 180 95 l 1
 79 95 l 1
 217 275 l 1
 143 456 l 1
 244 456 l 1
EndSplineSet
EndChar

StartChar: perthousand
Encoding: 8240 8240 118
Width: 1249
VWidth: -75
Flags: HW
HStem: -2 81<566.103 681.915 954.103 1069.92> 12 21G<168 283.097> 264 80<591.412 705.761 979.412 1093.76> 405 82<242.657 360.571> 671 81<267.085 382.897> 717 20G<664.903 780>
VStem: 137.199 86.2861<506.623 625.954> 402.515 86.2529<529.771 651.986> 460.232 86.2529<99.8922 218.875> 725.515 86.2861<122.771 242.377> 848.232 86.2529<99.8922 218.875> 1113.51 86.2861<122.771 242.377>
LayerCount: 2
Fore
SplineSet
679 737 m 1
 780 737 l 1
 269 12 l 1
 168 12 l 1
 679 737 l 1
1008 79 m 0
 1057 79 1103 120 1112 171 c 0
 1113.02148438 176.790039062 1113.51464844 182.463867188 1113.51464844 187.973632812 c 0
 1113.51464844 230.995117188 1083.4375 264 1040 264 c 0
 991 264 945 222 936 171 c 0
 934.978515625 165.209960938 934.485351562 159.548828125 934.485351562 154.0625 c 0
 934.485351562 111.21875 964.5625 79 1008 79 c 0
1055 344 m 0
 1141.23046875 344 1199.80078125 283.939453125 1199.80078125 202.45703125 c 0
 1199.80078125 192.280273438 1198.88769531 181.76953125 1197 171 c 0
 1180 73 1091 -2 994 -2 c 0
 907.641601562 -2 848.232421875 58.2392578125 848.232421875 139.905273438 c 0
 848.232421875 149.96875 849.134765625 160.358398438 851 171 c 0
 868 268 958 344 1055 344 c 0
620 79 m 0
 669 79 715 120 724 171 c 0
 725.021484375 176.790039062 725.514648438 182.463867188 725.514648438 187.973632812 c 0
 725.514648438 230.995117188 695.4375 264 652 264 c 0
 603 264 557 222 548 171 c 0
 546.978515625 165.209960938 546.485351562 159.548828125 546.485351562 154.0625 c 0
 546.485351562 111.21875 576.5625 79 620 79 c 0
667 344 m 0
 753.23046875 344 811.80078125 283.939453125 811.80078125 202.45703125 c 0
 811.80078125 192.280273438 810.887695312 181.76953125 809 171 c 0
 792 73 703 -2 606 -2 c 0
 519.641601562 -2 460.232421875 58.2392578125 460.232421875 139.905273438 c 0
 460.232421875 149.96875 461.134765625 160.358398438 463 171 c 0
 480 268 570 344 667 344 c 0
297 487 m 0
 346 487 392 528 401 579 c 0
 402.021484375 584.790039062 402.514648438 590.451171875 402.514648438 595.9375 c 0
 402.514648438 638.78125 372.4375 671 329 671 c 0
 280 671 234 630 225 579 c 0
 223.978515625 573.209960938 223.485351562 567.548828125 223.485351562 562.0625 c 0
 223.485351562 519.21875 253.5625 487 297 487 c 0
343 752 m 0
 429.358398438 752 488.767578125 690.96875 488.767578125 609.127929688 c 0
 488.767578125 599.04296875 487.865234375 588.641601562 486 578 c 0
 469 480 379 405 282 405 c 0
 195.76953125 405 137.19921875 465.060546875 137.19921875 546.54296875 c 0
 137.19921875 556.719726562 138.112304688 567.23046875 140 578 c 0
 157 675 246 752 343 752 c 0
EndSplineSet
EndChar

StartChar: grave
Encoding: 96 96 119
Width: 301
VWidth: -75
Flags: HW
HStem: 633 124<185 210>
VStem: 88 188
LayerCount: 2
Fore
SplineSet
88 757 m 1
 210 757 l 1
 276 633 l 1
 185 633 l 1
 88 757 l 1
EndSplineSet
EndChar

StartChar: uniFB00
Encoding: 64256 64256 120
Width: 656
VWidth: -75
Flags: HW
HStem: 12 21G<96 201.527 403 508.527> 443 85<99 172 289 406 417 479 596 709> 673.062 85.3555<352.985 459.256> 713.062 85.3555<682.185 792.256>
VStem: 96 102<12 55.6671> 403 102<12 55.6671>
LayerCount: 2
Fore
SplineSet
84 443 m 1
 99 528 l 1
 187 528 l 1
 189 543 l 2
 208.257641921 687.43231441 308 758.41796875 439.689453125 758.41796875 c 0
 450.52734375 758.41796875 461.6328125 757.947265625 473 757 c 1
 473 757 463 699 458 673 c 0
 455.680664062 673.041015625 453.385742188 673.0625 451.116210938 673.0625 c 0
 359 673.0625 306.172972973 636.762162162 292 547 c 2
 289 528 l 1
 406 528 l 1
 417 528 l 1
 494 528 l 1
 496 543 l 1
 524.90234375 708.95703125 623.345703125 798.41796875 772.689453125 798.41796875 c 0
 783.52734375 798.41796875 794.6328125 797.947265625 806 797 c 1
 806 797 796 739 791 713 c 0
 788.680664062 713.041015625 786.385742188 713.0625 784.116210938 713.0625 c 0
 676.775390625 713.0625 624.461914062 666.473632812 599 547 c 1
 596 528 l 1
 724 528 l 1
 709 443 l 1
 581 443 l 1
 505 12 l 1
 403 12 l 1
 479 443 l 1
 402 443 l 1
 391 443 l 1
 274 443 l 1
 198 12 l 1
 96 12 l 1
 172 443 l 1
 84 443 l 1
EndSplineSet
LCarets2: 1 0
Ligature2: "dlig-1" f f
EndChar

